<svg width="26" height="26" fill="none" xmlns="http://www.w3.org/2000/svg"><path d="M0 13c0 2.557.738 4.94 1.997 6.933h22.006A12.958 12.958 0 0 0 26 13c0-2.557-.738-4.94-1.997-6.933H1.997A12.959 12.959 0 0 0 0 13Z" fill="#F9F9F9"/><path d="M24.047 6.067A13.028 13.028 0 0 0 13.022 0 13.028 13.028 0 0 0 1.997 6.067h22.05ZM1.997 19.933C4.297 23.573 8.377 26 13.022 26c4.644 0 8.724-2.427 11.025-6.067H1.997Z" fill="#B4D7EE"/><path d="m18.968 12.913-3.559-.13v-.043c.564-.087.998-.433 1.606-.39.738.087 1.172-.347 1.432-.433.304-.087.478.086.478 0 .043-.087-.174-.26-.608-.217-.39.043-.52.39-1.432.303-.782-.043-1.042.26-1.606.26v-.043l3.212-1.473s.087-.044.087-.13c-.044-.087-.13-.044-.13-.044l-3.256 1.3v-.043c.477-.303.738-.78 1.346-.953.694-.217.954-.737 1.171-.954.218-.216.478-.086.478-.173s-.26-.173-.608.043c-.347.217-.347.564-1.215.824-.738.216-.868.606-1.39.866l-.043-.043 2.431-2.6s.087-.087.044-.13c-.044-.043-.13.043-.13.043L14.67 11.18l-.043-.043c.347-.477.39-.997.868-1.387.564-.477.564-1.04.694-1.3s.391-.26.348-.347c-.044-.086-.304-.043-.565.26-.26.347-.13.65-.781 1.214-.564.476-.564.91-.912 1.3 0 0-.043 0-.043-.044l1.215-3.336s.044-.087-.043-.13c-.087-.044-.13.086-.13.086l-1.476 3.207h-.043c.13-.563 0-1.083.26-1.603.347-.65.13-1.214.13-1.474.044-.303.26-.39.217-.433-.043-.087-.304.087-.434.477-.087.39.13.65-.26 1.43-.348.693-.174 1.04-.348 1.56h-.043l-.13-3.554s0-.13-.087-.13-.087.13-.087.13l-.13 3.554h-.043c-.087-.564-.434-.997-.391-1.604.087-.736-.347-1.17-.434-1.43-.087-.26.087-.476 0-.476-.087-.044-.26.173-.217.606.043.39.39.52.304 1.43-.044.78.26 1.04.26 1.604h-.043L10.808 7.54s-.043-.087-.13-.087c-.087.044-.044.13-.044.13l1.216 3.337h-.044c-.303-.477-.781-.737-.955-1.343-.217-.694-.738-.954-.955-1.17-.217-.217-.086-.477-.173-.477s-.174.26.043.607c.217.346.565.346.825 1.213.217.737.608.867.868 1.387l-.043.043L8.81 8.753s-.086-.086-.13-.043c-.043.043.044.13.044.13l2.43 2.6-.043.043c-.478-.346-.998-.39-1.39-.866-.477-.564-1.04-.564-1.301-.694-.26-.13-.26-.39-.348-.346-.086.043-.043.303.26.563.348.26.652.13 1.216.78.478.563.912.563 1.302.91 0 0 0 .043-.043.043L7.466 10.66s-.087-.043-.13.043c-.044.087.086.13.086.13l3.212 1.474v.043c-.564-.13-1.085 0-1.606-.26-.65-.347-1.215-.13-1.475-.13-.304-.043-.391-.26-.434-.217-.087.044.086.304.477.434.39.086.651-.13 1.432.26.695.346 1.042.173 1.563.346v.044l-3.56.13s-.13 0-.13.086c0 .087.13.087.13.087l3.56.13v.043c-.564.087-.998.434-1.606.39-.738-.086-1.172.347-1.432.434-.304.086-.478-.087-.478 0-.043.086.174.26.608.216.434-.043.52-.346 1.432-.303.781.043 1.042-.26 1.606-.26v.043L7.51 15.297s-.087.043-.087.13c0 .086.13.043.13.043l3.343-1.213v.043c-.478.303-.738.78-1.346.953-.694.217-.955.737-1.172.954-.217.216-.477.086-.477.173s.26.173.607-.043c.348-.217.348-.564 1.216-.824.738-.216.868-.606 1.389-.866l.043.043-2.43 2.6s-.087.087-.044.13c.044.043.13-.043.13-.043l2.605-2.427.043.043c-.347.477-.39.997-.868 1.387-.564.477-.564 1.04-.695 1.3-.13.26-.39.26-.347.347.044.086.304.043.565-.26.26-.304.13-.65.78-1.214.565-.476.565-.91.912-1.3 0 0 .044 0 .044.044l-1.216 3.336s-.043.087.044.13c.087.044.13-.086.13-.086l1.476-3.207h.043c-.13.563 0 1.083-.26 1.603-.348.65-.13 1.214-.174 1.474-.043.303-.26.39-.217.433.043.087.304-.087.434-.477.087-.39-.13-.606.26-1.43.348-.693.174-1.04.348-1.56h.043l.13 3.554s0 .13.087.13.087-.13.087-.13l.13-3.554h.044c.086.564.434.997.39 1.604-.086.736.348 1.17.434 1.43.087.303-.086.476 0 .476.087.044.26-.173.217-.606-.043-.39-.39-.52-.303-1.43.043-.78-.26-1.04-.26-1.604h.043l1.475 3.207s.044.087.13.087c.087-.044.044-.13.044-.13l-1.259-3.38h.044c.303.476.78.736.955 1.343.217.693.738.953.955 1.17.216.217.086.477.173.477s.174-.26-.043-.607c-.217-.347-.565-.347-.825-1.213-.217-.737-.608-.867-.868-1.387l.043-.043 2.605 2.426s.086.087.13.044c.043-.044-.044-.13-.044-.13l-2.43-2.6.043-.044c.478.347.998.39 1.39.867.477.563 1.04.563 1.301.693.26.13.26.39.348.347.086-.043.043-.303-.26-.563-.348-.26-.652-.13-1.216-.78-.478-.564-.912-.564-1.302-.954 0 0 0-.043.043-.043l3.342 1.213s.087.044.13-.043c.044-.087-.086-.13-.086-.13l-3.212-1.473v-.044c.564.13 1.085 0 1.606.26.65.347 1.215.13 1.475.13.304.044.391.26.434.217.087-.043-.086-.303-.477-.433-.39-.087-.651.13-1.432-.26-.695-.347-1.042-.174-1.563-.347v-.043l3.56-.13s.13 0 .13-.087-.13-.087-.13-.087Z" fill="#F6B40E"/><path d="M14.324 12.697a.698.698 0 0 0-.478-.217c-.173 0-.303.087-.434.217.217.173.608.173.912 0Zm-.13-.044c-.087.087-.174.13-.26.13.043-.043.086-.086.086-.13 0-.043-.043-.086-.087-.13.13.044.217.087.26.13Zm-.478-.13c-.043.044-.043.087-.043.13 0 .044.043.13.087.13-.087 0-.174-.043-.26-.13.086-.043.13-.086.216-.13Z" fill="#85340A"/><path d="M13.89 12.35c-.26 0-.304.043-.39.13-.131.087-.175.087-.175.087s0 .086.044.043c.043 0 .13-.043.217-.13.13-.087.217-.087.347-.087.348 0 .521.26.565.26.043 0-.26-.303-.608-.303Z" fill="#85340A"/><path d="M13.152 12.307c-.043.086-.043.13-.043.216-.044.26 0 .564.173.867 0 0 .043-.043.087-.043-.174-.217-.217-.477-.217-.694 0-.13.087-.216.13-.303.304-.26.825-.217 1.259.13-.39-.563-.955-.52-1.39-.173Z" fill="#85340A"/><path d="M13.586 12.87c-.13-.087-.174-.13-.217-.13-.043 0-.043.043.13.13.174.087.521.13.825-.13-.347.173-.608.173-.738.13ZM13.369 13.563c-.043 0-.087-.043-.13-.086 0 .043-.087.13-.217.13s-.217-.13-.217-.13c0 .043-.044.086-.13.086-.044 0-.13-.043-.13-.13 0-.043.043-.086.086-.086-.087 0-.13.086-.13.173s.087.173.173.173c.044 0 .087-.043.13-.086.044.043.174.043.218.043h.043c.043 0 .13 0 .217-.043.043.043.087.086.13.086.087 0 .174-.086.174-.173s-.043-.13-.13-.173c.043 0 .087.043.087.086-.044.087-.087.13-.174.13ZM13.022 13.953c.086 0 .173-.086.304 0 .13.087.217.13.303.174-.173-.13-.26-.26-.434-.26-.043 0-.13 0-.173.043-.087-.043-.13-.043-.174-.043-.174 0-.26.173-.434.26.087-.044.174-.13.304-.174.13-.043.217 0 .304 0Z" fill="#85340A"/><path d="M13.022 14.083c-.087 0-.13-.043-.26 0-.088 0-.174 0-.305.044h-.043c.39.043.217.26.608.26.39 0 .217-.217.607-.26h-.086c-.348-.13-.391-.044-.521-.044Zm0 .217c-.304 0-.217-.217-.565-.217.348-.086.391.044.565.044.13 0 .217-.087.564-.044-.347.044-.26.217-.564.217Z" fill="#85340A"/><path d="M13.022 14.387a.342.342 0 0 0-.348.346c.044-.173.174-.26.348-.26.173 0 .304.13.347.26a.342.342 0 0 0-.347-.346ZM12.761 12.35c.087.087.13.217.13.303.044.217-.043.434-.216.694 0 0 .043 0 .086.043.13-.303.217-.563.174-.867 0-.086-.043-.13-.043-.216-.391-.347-.955-.39-1.39.173.435-.39.999-.433 1.26-.13Z" fill="#85340A"/><path d="M12.5 12.523c.131.087.174.13.218.13.043 0 .043-.043.043-.043s-.087 0-.173-.087c-.13-.086-.174-.13-.391-.13-.39 0-.608.304-.564.304.043 0 .217-.26.564-.26.087 0 .217 0 .304.086Z" fill="#85340A"/><path d="M11.763 12.697c.087.086.26.13.434.13.13 0 .304-.044.434-.13a.698.698 0 0 0-.477-.217.518.518 0 0 0-.391.217Zm.087 0c.087-.087.173-.174.26-.174-.043.044-.087.087-.087.13 0 .087.044.13.087.13a.209.209 0 0 1-.26-.086Zm.65-.044a.949.949 0 0 1-.216.13c.043-.043.043-.086.043-.13 0-.043-.043-.086-.043-.13.13.044.217.087.217.13Z" fill="#85340A"/><path d="M12.718 12.74c-.043 0-.087.043-.217.13-.13.087-.39.087-.738-.087.304.26.651.217.825.13.173-.13.173-.173.13-.173Z" fill="#85340A"/></svg>