<svg width="26" height="26" fill="none" xmlns="http://www.w3.org/2000/svg"><g clip-path="url(#a)"><path d="M13 26c7.18 0 13-5.82 13-13S20.18 0 13 0 0 5.82 0 13s5.82 13 13 13Z" fill="#F0F0F0"/><path d="M13 0c-2.609 0-5.038.77-7.074 2.092L9.27 4.333 5.087 6.5 9.27 8.666l-4.183 2.167 4.183 2.166-4.183 2.167 4.183 2.166L5.087 19.5l4.183 2.167-3.344 2.242A12.938 12.938 0 0 0 13 26c7.18 0 13-5.82 13-13S20.18 0 13 0Z" fill="#D80027"/></g><defs><clipPath id="a"><path fill="#fff" d="M0 0h26v26H0z"/></clipPath></defs></svg>