<svg width="26" height="26" fill="none" xmlns="http://www.w3.org/2000/svg"><path d="M25.783 10.747C24.743 4.637 19.413 0 13 0 6.587 0 1.257 4.637.217 10.747L13 4.333l12.783 6.414ZM.217 15.253C1.257 21.363 6.587 26 13 26c6.413 0 11.743-4.637 12.783-10.747L13 21.667.217 15.253Z" fill="#699635"/><path d="M13 4.333.217 10.747C.087 11.483 0 12.22 0 13s.087 1.517.217 2.253L13 21.667l12.783-6.414c.13-.736.217-1.473.217-2.253s-.087-1.517-.217-2.253L13 4.333Z" fill="#FFE62E"/><path d="M10.4 11.44a9.461 9.461 0 0 0-3.857.823c-.043.26-.043.477-.043.737 0 3.597 2.903 6.5 6.5 6.5 2.427 0 4.55-1.343 5.677-3.293-1.604-2.817-4.724-4.767-8.277-4.767Z" fill="#428BC1"/><path d="M19.413 14.04c.044-.347.087-.693.087-1.04 0-3.597-2.903-6.5-6.5-6.5-2.557 0-4.767 1.473-5.85 3.64a11.56 11.56 0 0 1 3.25-.477c3.683 0 6.933 1.734 9.013 4.377Z" fill="#428BC1"/><path d="M10.4 9.663c-1.127 0-2.21.174-3.25.477a6.703 6.703 0 0 0-.607 2.123 9.461 9.461 0 0 1 3.857-.823c3.553 0 6.673 1.907 8.277 4.723.39-.65.606-1.386.736-2.123A11.444 11.444 0 0 0 10.4 9.663Z" fill="#fff"/><path d="M8.667 13.433a.433.433 0 1 0 0-.866.433.433 0 0 0 0 .866ZM10.4 16.033a.433.433 0 1 0 0-.866.433.433 0 0 0 0 .866ZM13 16.033a.433.433 0 1 0 0-.866.433.433 0 0 0 0 .866ZM13 17.767a.433.433 0 1 0 0-.867.433.433 0 0 0 0 .867ZM16.467 16.033a.433.433 0 1 0 0-.866.433.433 0 0 0 0 .866ZM16.467 17.767a.433.433 0 1 0 0-.867.433.433 0 0 0 0 .867ZM14.733 16.9a.433.433 0 1 0 0-.867.433.433 0 0 0 0 .867ZM8.667 15.167a.433.433 0 1 0 0-.867.433.433 0 0 0 0 .867Z" fill="#fff"/></svg>