<svg width="26" height="26" fill="none" xmlns="http://www.w3.org/2000/svg"><g clip-path="url(#a)"><path d="M13 26c7.18 0 13-5.82 13-13S20.18 0 13 0 0 5.82 0 13s5.82 13 13 13Z" fill="#F0F0F0"/><path d="M26 13c0 7.18-5.82 13-13 13S0 20.18 0 13s13 0 13 0h13Z" fill="#D80027"/><path d="M0 13C0 5.82 5.82 0 13 0v13H0Z" fill="#0052B4"/><path d="m7.739 4.522.841 2.59h2.724L9.101 8.714l.841 2.59-2.203-1.6-2.204 1.6.841-2.59-2.203-1.602h2.724l.842-2.59Z" fill="#F0F0F0"/></g><defs><clipPath id="a"><path fill="#fff" d="M0 0h26v26H0z"/></clipPath></defs></svg>