<svg width="26" height="26" fill="none" xmlns="http://www.w3.org/2000/svg"><g clip-path="url(#a)"><path d="M25.191 17.522C25.714 16.113 26 14.59 26 13c0-1.59-.286-3.113-.809-4.522L13 7.348.809 8.478A12.972 12.972 0 0 0 0 13c0 1.59.286 3.113.809 4.522L13 18.652l12.191-1.13Z" fill="#F0F0F0"/><path d="M13 26c5.59 0 10.355-3.528 12.191-8.478H.81C2.645 22.472 7.41 26 13 26Z" fill="#D80027"/><path d="M13 0C7.41 0 2.645 3.528.809 8.478H25.19C23.355 3.528 18.59 0 13 0Z" fill="#6DA544"/><path d="M3.808 3.808c-5.077 5.076-5.077 13.308 0 18.384l4.67-4.67V8.478l-4.67-4.67Z" fill="#000"/></g><defs><clipPath id="a"><path fill="#fff" d="M0 0h26v26H0z"/></clipPath></defs></svg>