<svg width="26" height="26" fill="none" xmlns="http://www.w3.org/2000/svg"><g clip-path="url(#a)"><path d="M13 26c7.18 0 13-5.82 13-13S20.18 0 13 0 0 5.82 0 13s5.82 13 13 13Z" fill="#F0F0F0"/><path d="M26 13c0-5.154-3-9.607-7.348-11.71v23.42C23.001 22.607 26 18.154 26 13Z" fill="#D80027"/><path d="M0 13c0 5.154 3 9.607 7.348 11.71V1.29C2.999 3.393 0 7.846 0 13ZM9.609 13a3.391 3.391 0 0 0 6.782 0v-1.13H9.61V13Z" fill="#6DA544"/><path d="M17.522 10.74H14.13a1.13 1.13 0 1 0-2.26 0H8.478c0 .623.544 1.13 1.168 1.13H9.61c0 .624.506 1.13 1.13 1.13 0 .624.506 1.13 1.13 1.13h2.261A1.13 1.13 0 0 0 15.26 13a1.13 1.13 0 0 0 1.131-1.13h-.037c.624 0 1.168-.506 1.168-1.13Z" fill="#FF9811"/></g><defs><clipPath id="a"><path fill="#fff" d="M0 0h26v26H0z"/></clipPath></defs></svg>