<svg width="160" height="62" fill="none" xmlns="http://www.w3.org/2000/svg"><g clip-path="url(#a)"><path d="M23.222 31.77c0-7.756-3.623-11.354-9.723-11.354-6.1 0-9.746 3.598-9.746 11.354v13.543c0 1.269-.872 1.903-1.877 1.903C.872 47.216 0 46.582 0 45.313V31.77c0-10.225 5.301-14.88 13.49-14.88 8.19 0 13.492 4.655 13.492 14.88v13.543c0 1.269-.874 1.903-1.877 1.903-1.003 0-1.876-.634-1.876-1.903l-.007-13.543ZM38.456 33.887c.604 5.924 4.833 10.015 11.746 10.015 4.967 0 7.785-1.905 9.262-3.033 1.812-1.128 3.223 1.545 1.812 2.962-1.544 1.482-5.638 3.597-11.41 3.597-9.329 0-15.236-6.066-15.236-15.022 0-8.251 4.833-15.516 14.968-15.516 7.65 0 12.416 4.16 12.416 10.438 0 6.489-4.562 9.873-12.013 9.873-4.969 0-8.121-.846-11.545-3.314Zm0-3.527c3.826 2.47 6.98 3.314 11.142 3.314 5.773 0 8.725-2.537 8.725-6.487s-3.087-6.834-8.658-6.834c-7.316 0-10.537 4.576-11.209 10.007ZM125.373 19.494c0-1.34.94-1.904 1.876-1.904.937 0 1.877.563 1.877 1.904v13.542c0 10.225-5.436 14.88-13.491 14.88s-13.489-4.655-13.489-14.88V19.494c0-1.34.94-1.904 1.876-1.904.937 0 1.876.634 1.876 1.904v13.471c0 7.334 3.289 11.285 9.723 11.285 6.434 0 9.733-3.95 9.733-11.285l.019-13.47ZM147.516 47.71c-4.966 0-8.188-.917-10.47-1.693-1.877-.987-.806-4.09 1.276-3.314 2.817.917 5.301 1.48 9.328 1.48 4.766 0 8.457-1.545 8.457-5.495 0-8.463-19.061-3.032-19.061-13.824 0-7.052 7.45-7.758 11.343-7.758 3.959 0 7.181.706 9.731 1.975 1.877.917.874 3.949-1.141 3.245-2.683-1.058-4.899-1.693-8.59-1.693-2.685 0-7.517.282-7.517 4.16 0 7.195 19.128 2.188 19.128 13.895 0 6.836-6.311 9.022-12.484 9.022ZM62.538 54.239a5.07 5.07 0 0 0-1.839-2.087 5.023 5.023 0 0 0-2.655-.795c-2.793 0-5.065 2.387-5.065 5.323 0 2.937 2.272 5.323 5.065 5.323 2.313 0 4.264-1.64 4.866-3.87a5.497 5.497 0 0 0-.372-3.89v-.004Zm-4.494 6.295c-2.027 0-3.676-1.733-3.676-3.862 0-2.13 1.65-3.862 3.675-3.862 2.027 0 3.675 1.733 3.675 3.862s-1.648 3.862-3.675 3.862Z" fill="#D51F28"/><path d="M85.01 24.713c2.465-7.693 8.742-13.566 16.459-15.11v4.015a.768.768 0 0 0 .412.687.702.702 0 0 0 .771-.087l7.69-6.37a.786.786 0 0 0 .204-.933.786.786 0 0 0-.204-.27L102.651.167a.695.695 0 0 0-.773-.096.768.768 0 0 0-.414.686v4.877c-9.055 1.545-16.516 8.148-19.67 16.948.171.465.318.937.46 1.415a8.132 8.132 0 0 1 2.756.716ZM78.373 39.858c-2.559 7.24-8.53 12.755-15.835 14.38a5.497 5.497 0 0 1 .372 3.892c8.7-1.783 15.826-8.243 18.89-16.797.095-.266.184-.536.27-.806-.144 0-.29.012-.438.012a8.102 8.102 0 0 1-3.26-.681Z" fill="#EE6634"/><path d="M82.258 24.007c-.141-.477-.291-.95-.458-1.415-3.07-8.546-10.187-15.014-18.89-16.797-.602-2.232-2.559-3.87-4.866-3.87-2.793 0-5.065 2.387-5.065 5.323 0 2.936 2.272 5.323 5.065 5.323a5.021 5.021 0 0 0 2.656-.795 5.07 5.07 0 0 0 1.838-2.086c7.489 1.665 13.561 7.406 16.009 14.9a8.14 8.14 0 0 1 3.085-.605 5.9 5.9 0 0 1 .626.022ZM58.037 11.108c-2.027 0-3.676-1.733-3.676-3.862s1.65-3.862 3.676-3.862c2.026 0 3.674 1.733 3.674 3.862 0 2.13-1.641 3.862-3.667 3.862h-.007ZM105.554 51.357a5.02 5.02 0 0 0-2.656.795 5.076 5.076 0 0 0-1.839 2.087c-7.358-1.637-13.349-7.212-15.879-14.512-.974.47-2.03.742-3.11.799-.086.27-.17.539-.27.805 3.07 8.544 10.185 15.013 18.886 16.797.602 2.232 2.558 3.87 4.868 3.87 2.792 0 5.063-2.386 5.063-5.323 0-2.936-2.271-5.318-5.063-5.318Zm0 9.184c-2.027 0-3.676-1.733-3.676-3.862 0-2.13 1.649-3.862 3.676-3.862 2.026 0 3.674 1.732 3.674 3.862 0 2.129-1.648 3.855-3.674 3.855v.007Z" fill="#D51F28"/><path d="M89.153 32.26a7.623 7.623 0 0 1-1.98 5.102 7.526 7.526 0 0 1-5.542 2.468 7.499 7.499 0 0 1-5.246-2.257 7.598 7.598 0 0 1-2.163-5.314c0-1.989.777-3.898 2.163-5.314a7.499 7.499 0 0 1 5.246-2.258 7.532 7.532 0 0 1 5.6 2.533 7.627 7.627 0 0 1 1.922 5.04Z" fill="#8AC640"/></g><defs><clipPath id="a"><path fill="#fff" d="M0 0h160v62H0z"/></clipPath></defs></svg>