<svg width="1917" height="977" fill="none" xmlns="http://www.w3.org/2000/svg"><g opacity=".1" clip-path="url(#a)"><path d="m1696.01 435.335 46.19 129.231-38.54 80.353M1344.68 773.101l-26.11-108.775 113.75-73.877 46.7-137.314" stroke="#630716" stroke-width=".75" stroke-miterlimit="10"/><path d="m1534.89 681.496-102.5-91.07 263.65-155.091" stroke="#630716" stroke-width=".75" stroke-miterlimit="10"/><path d="m1897.27 497.842-201.26-62.483 107.18-37.882M180.923 631.756l15.481-74.109M82.371 593.478c.14-3.378 22.802-84.639 22.802-84.639l91.254 48.924 16.321-109.917-105.127 59.618-90.391 51.021M710.543 327.282l-157.259 16.262M951.665 345.617l98.525 318.988M864.887 410.803l86.778-65.186M1051.64 426.063l-3.5-196.351 115.57 80.027 4.22-80.073M1051.64 426.063l-149.263 142.37M1129.93 558.392l-78.29-132.329M949.846 163.059l76.844-10.438 21.45 77.091-96.475 115.905" stroke="#630716" stroke-width=".75" stroke-miterlimit="10"/><path d="M1244.85 311.836a82.018 82.018 0 0 1-24.05 58.02 82.158 82.158 0 0 1-58.07 24.033c-108.95-4.333-108.9-159.82 0-164.13a82.14 82.14 0 0 1 31.43 6.248 82.133 82.133 0 0 1 26.65 17.793 82.214 82.214 0 0 1 17.8 26.628 82.153 82.153 0 0 1 6.24 31.408Z" stroke="#630716" stroke-width=".75" stroke-miterlimit="10" stroke-dasharray="2.26 2.26"/><path d="M1026.62 174.288c12.07 0 21.85-9.774 21.85-21.83s-9.78-21.829-21.85-21.829c-12.06 0-21.84 9.773-21.84 21.829 0 12.056 9.78 21.83 21.84 21.83ZM710.52 355.751c15.747 0 28.514-12.756 28.514-28.492s-12.767-28.493-28.514-28.493c-15.748 0-28.514 12.757-28.514 28.493 0 15.736 12.766 28.492 28.514 28.492ZM196.404 580.432c12.593 0 22.802-10.202 22.802-22.785 0-12.584-10.209-22.785-22.802-22.785s-22.802 10.201-22.802 22.785c0 12.583 10.209 22.785 22.802 22.785ZM105.173 531.6c12.593 0 22.802-10.201 22.802-22.785 0-12.583-10.209-22.785-22.802-22.785s-22.802 10.202-22.802 22.785c0 12.584 10.21 22.785 22.802 22.785ZM82.348 609.763c9 0 16.297-7.291 16.297-16.285s-7.296-16.285-16.297-16.285c-9 0-16.297 7.291-16.297 16.285s7.296 16.285 16.297 16.285ZM17.16 574.747c9 0 16.297-7.291 16.297-16.285s-7.297-16.285-16.297-16.285S.863 549.468.863 558.462s7.296 16.285 16.297 16.285ZM1048.14 258.159c15.75 0 28.52-12.757 28.52-28.493 0-15.736-12.77-28.493-28.52-28.493s-28.51 12.757-28.51 28.493c0 15.736 12.76 28.493 28.51 28.493ZM1163.71 338.232c15.75 0 28.52-12.757 28.52-28.493 0-15.736-12.77-28.493-28.52-28.493-15.74 0-28.51 12.757-28.51 28.493 0 15.736 12.77 28.493 28.51 28.493ZM1167.93 245.951c9 0 16.3-7.291 16.3-16.285s-7.3-16.285-16.3-16.285-16.29 7.291-16.29 16.285 7.29 16.285 16.29 16.285ZM1344.68 787.639c8.04 0 14.55-6.509 14.55-14.538s-6.51-14.538-14.55-14.538c-8.03 0-14.55 6.509-14.55 14.538s6.52 14.538 14.55 14.538ZM949.846 177.596c8.035 0 14.549-6.509 14.549-14.537 0-8.029-6.514-14.538-14.549-14.538-8.034 0-14.548 6.509-14.548 14.538 0 8.028 6.514 14.537 14.548 14.537ZM1318.57 686.155c12.07 0 21.85-9.773 21.85-21.829 0-12.057-9.78-21.83-21.85-21.83-12.06 0-21.85 9.773-21.85 21.83 0 12.056 9.79 21.829 21.85 21.829ZM1432.32 637.091c25.78 0 46.68-20.882 46.68-46.642 0-25.759-20.9-46.641-46.68-46.641-25.77 0-46.67 20.882-46.67 46.641 0 25.76 20.9 46.642 46.67 46.642ZM902.401 615.075c25.778 0 46.676-20.882 46.676-46.642 0-25.759-20.898-46.641-46.676-46.641-25.779 0-46.677 20.882-46.677 46.641 0 25.76 20.898 46.642 46.677 46.642ZM1051.64 464.783c21.4 0 38.75-17.335 38.75-38.72 0-21.385-17.35-38.72-38.75-38.72s-38.75 17.335-38.75 38.72c0 21.385 17.35 38.72 38.75 38.72ZM951.665 384.314c21.401 0 38.749-17.336 38.749-38.72 0-21.385-17.348-38.721-38.749-38.721-21.401 0-38.749 17.336-38.749 38.721 0 21.384 17.348 38.72 38.749 38.72ZM1129.93 597.112c21.4 0 38.75-17.335 38.75-38.72 0-21.384-17.35-38.72-38.75-38.72s-38.75 17.336-38.75 38.72c0 21.385 17.35 38.72 38.75 38.72ZM1534.89 709.988c15.74 0 28.51-12.756 28.51-28.492s-12.77-28.493-28.51-28.493c-15.75 0-28.52 12.757-28.52 28.493 0 15.736 12.77 28.492 28.52 28.492ZM1696.01 463.828c15.75 0 28.52-12.757 28.52-28.493 0-15.736-12.77-28.492-28.52-28.492-15.74 0-28.51 12.756-28.51 28.492s12.77 28.493 28.51 28.493ZM1703.66 659.456c8.04 0 14.55-6.508 14.55-14.537s-6.51-14.538-14.55-14.538c-8.03 0-14.55 6.509-14.55 14.538s6.52 14.537 14.55 14.537ZM1803.19 419.307c12.07 0 21.85-9.774 21.85-21.83s-9.78-21.83-21.85-21.83c-12.06 0-21.84 9.774-21.84 21.83s9.78 21.83 21.84 21.83ZM1897.27 519.672c12.06 0 21.84-9.774 21.84-21.83s-9.78-21.829-21.84-21.829c-12.07 0-21.85 9.773-21.85 21.829 0 12.056 9.78 21.83 21.85 21.83ZM1742.2 586.396c12.07 0 21.85-9.774 21.85-21.83s-9.78-21.83-21.85-21.83c-12.06 0-21.84 9.774-21.84 21.83s9.78 21.83 21.84 21.83ZM180.923 648.041c9.001 0 16.297-7.291 16.297-16.285s-7.296-16.285-16.297-16.285c-9.001 0-16.297 7.291-16.297 16.285s7.296 16.285 16.297 16.285ZM1050.19 664.605l-147.813-96.172M1050.17 664.605l79.76-106.213" stroke="#630716" stroke-width=".75" stroke-miterlimit="10"/><path d="M829.379 887.188c8.035 0 14.548-6.508 14.548-14.537s-6.513-14.538-14.548-14.538-14.549 6.509-14.549 14.538 6.514 14.537 14.549 14.537Z" stroke="#82C341" stroke-width=".75" stroke-miterlimit="10"/><path d="M864.887 432.633c12.065 0 21.846-9.774 21.846-21.83s-9.781-21.829-21.846-21.829-21.846 9.773-21.846 21.829c0 12.056 9.781 21.83 21.846 21.83Z" stroke="#630716" stroke-width=".75" stroke-miterlimit="10"/><path d="m1477.88 226.451-99.53 84.896-101.07-52.769M304.772 305.266l22.009-82.217M413.955 339.467l-109.183-34.201M730.081 758.773l-139.33-172.61M304.772 305.266l142.593 359.852M240.446 217.388l64.326 87.878M763.001 615.75l-32.897 143M902.377 568.433 763.001 615.75M763.001 615.75l101.886-204.947M590.751 586.163l172.25 29.587M1296.16 362.857l-68.14 107.028M1378.35 311.347l-82.19 51.51M1359.53 459.332l18.82-147.985M1479 453.111l-182.84-90.254M304.772 328.051c12.593 0 22.801-10.201 22.801-22.785s-10.208-22.785-22.801-22.785c-12.594 0-22.802 10.201-22.802 22.785s10.208 22.785 22.802 22.785ZM730.081 805.391c25.778 0 46.676-20.882 46.676-46.641 0-25.759-20.898-46.641-46.676-46.641-25.779 0-46.677 20.882-46.677 46.641 0 25.759 20.898 46.641 46.677 46.641ZM326.781 239.334c9 0 16.297-7.291 16.297-16.285s-7.297-16.285-16.297-16.285c-9.001 0-16.297 7.291-16.297 16.285s7.296 16.285 16.297 16.285ZM240.423 233.626c9 0 16.297-7.291 16.297-16.284 0-8.994-7.297-16.285-16.297-16.285-9.001 0-16.298 7.291-16.298 16.285 0 8.993 7.297 16.284 16.298 16.284ZM763.001 644.22c15.748 0 28.514-12.757 28.514-28.493 0-15.736-12.766-28.493-28.514-28.493s-28.514 12.757-28.514 28.493c0 15.736 12.766 28.493 28.514 28.493ZM1296.16 391.35c15.75 0 28.52-12.757 28.52-28.493 0-15.736-12.77-28.493-28.52-28.493-15.74 0-28.51 12.757-28.51 28.493 0 15.736 12.77 28.493 28.51 28.493ZM1359.53 473.869c8.04 0 14.55-6.508 14.55-14.537s-6.51-14.538-14.55-14.538c-8.03 0-14.54 6.509-14.54 14.538s6.51 14.537 14.54 14.537Z" stroke="#DE2531" stroke-width=".75" stroke-miterlimit="10"/><path d="M1277.28 273.115c8.03 0 14.55-6.508 14.55-14.537s-6.52-14.538-14.55-14.538c-8.03 0-14.55 6.509-14.55 14.538s6.52 14.537 14.55 14.537ZM1477.88 240.988c8.04 0 14.55-6.508 14.55-14.537s-6.51-14.538-14.55-14.538c-8.03 0-14.55 6.509-14.55 14.538s6.52 14.537 14.55 14.537ZM1378.35 333.176c12.06 0 21.85-9.773 21.85-21.829 0-12.057-9.79-21.83-21.85-21.83-12.07 0-21.85 9.773-21.85 21.83 0 12.056 9.78 21.829 21.85 21.829ZM590.751 624.417c21.143 0 38.283-17.127 38.283-38.254 0-21.128-17.14-38.255-38.283-38.255s-38.283 17.127-38.283 38.255c0 21.127 17.14 38.254 38.283 38.254Z" stroke="#DE2531" stroke-width=".75" stroke-miterlimit="10"/><path d="M448.181 522.887c25.779 0 46.676-20.882 46.676-46.641 0-25.76-20.897-46.642-46.676-46.642-25.779 0-46.676 20.882-46.676 46.642 0 25.759 20.897 46.641 46.676 46.641ZM304.772 578.824c21.143 0 38.282-17.127 38.282-38.254 0-21.128-17.139-38.255-38.282-38.255-21.144 0-38.283 17.127-38.283 38.255 0 21.127 17.139 38.254 38.283 38.254ZM413.955 367.959c15.748 0 28.514-12.756 28.514-28.492 0-15.737-12.766-28.493-28.514-28.493s-28.514 12.756-28.514 28.493c0 15.736 12.766 28.492 28.514 28.492ZM602.968 262.935c9.001 0 16.297-7.291 16.297-16.285s-7.296-16.285-16.297-16.285c-9 0-16.297 7.291-16.297 16.285s7.297 16.285 16.297 16.285ZM1000.07 876.052c15.74 0 28.51-12.756 28.51-28.492s-12.77-28.493-28.51-28.493c-15.751 0-28.517 12.757-28.517 28.493 0 15.736 12.766 28.492 28.517 28.492ZM880.042 794.721c12.065 0 21.846-9.773 21.846-21.83 0-12.056-9.781-21.829-21.846-21.829s-21.846 9.773-21.846 21.829c0 12.057 9.781 21.83 21.846 21.83ZM700.751 519.625c25.778 0 46.676-20.882 46.676-46.641 0-25.759-20.898-46.641-46.676-46.641-25.779 0-46.677 20.882-46.677 46.641 0 25.759 20.898 46.641 46.677 46.641ZM212.701 486.007c21.143 0 38.283-17.127 38.283-38.254s-17.14-38.254-38.283-38.254-38.283 17.127-38.283 38.254 17.14 38.254 38.283 38.254ZM447.365 703.372c21.143 0 38.283-17.127 38.283-38.254 0-21.128-17.14-38.255-38.283-38.255s-38.283 17.127-38.283 38.255c0 21.127 17.14 38.254 38.283 38.254ZM553.284 366.328c12.594 0 22.802-10.201 22.802-22.784 0-12.584-10.208-22.785-22.802-22.785-12.593 0-22.802 10.201-22.802 22.785 0 12.583 10.209 22.784 22.802 22.784ZM1228.02 516.527c25.77 0 46.67-20.882 46.67-46.642 0-25.759-20.9-46.641-46.67-46.641-25.78 0-46.68 20.882-46.68 46.641 0 25.76 20.9 46.642 46.68 46.642ZM1479 499.753c25.78 0 46.68-20.882 46.68-46.642 0-25.759-20.9-46.641-46.68-46.641s-46.68 20.882-46.68 46.641c0 25.76 20.9 46.642 46.68 46.642ZM1050.19 711.247c25.78 0 46.68-20.883 46.68-46.642 0-25.759-20.9-46.641-46.68-46.641s-46.67 20.882-46.67 46.641c0 25.759 20.89 46.642 46.67 46.642ZM1187.94 822.515c21.4 0 38.75-17.336 38.75-38.72 0-21.385-17.35-38.721-38.75-38.721s-38.75 17.336-38.75 38.721c0 21.384 17.35 38.72 38.75 38.72ZM1275.9 901.33c15.75 0 28.52-12.757 28.52-28.493 0-15.736-12.77-28.492-28.52-28.492-15.74 0-28.51 12.756-28.51 28.492s12.77 28.493 28.51 28.493ZM1540.39 292.546c12.06 0 21.84-9.774 21.84-21.83s-9.78-21.83-21.84-21.83c-12.07 0-21.85 9.774-21.85 21.83s9.78 21.83 21.85 21.83ZM1603.22 377.861c15.75 0 28.52-12.757 28.52-28.493 0-15.736-12.77-28.493-28.52-28.493s-28.51 12.757-28.51 28.493c0 15.736 12.76 28.493 28.51 28.493ZM1656.61 271.019c12.07 0 21.85-9.774 21.85-21.83s-9.78-21.83-21.85-21.83c-12.06 0-21.84 9.774-21.84 21.83s9.78 21.83 21.84 21.83ZM1641.71 596.786c21.4 0 38.75-17.335 38.75-38.72 0-21.385-17.35-38.72-38.75-38.72s-38.75 17.335-38.75 38.72c0 21.385 17.35 38.72 38.75 38.72ZM1624.76 190.34c8.04 0 14.55-6.509 14.55-14.538s-6.51-14.537-14.55-14.537c-8.03 0-14.54 6.508-14.54 14.537s6.51 14.538 14.54 14.538ZM447.365 665.118l.839-188.872" stroke="#82C341" stroke-width=".75" stroke-miterlimit="10"/><path d="M448.274 477.271 304.772 540.57l-92.071-92.817 201.254-108.286 34.249 136.779" stroke="#82C341" stroke-width=".75" stroke-miterlimit="10"/><path d="m196.427 557.67 108.345-17.1 142.57 124.548M602.968 246.65l-49.684 96.894M700.751 473.031l29.33 285.742M553.284 343.544l37.467 242.595 110-113.108M447.388 665.141l263.155-337.859M448.204 476.246l142.547 109.917-143.363 78.978M829.379 871.672l50.663-99.782 120.028 74.668 50.12-182.955 137.75 119.213-187.87 63.765M1275.9 872.861l-87.96-89.066M1228.02 469.885l-176.38-43.822M1228.02 469.885l-98.09 88.507M1540.39 270.716l62.83 78.652 53.39-100.179-31.85-73.387M1696.04 435.335l-54.37 122.731M1479.02 453.135l124.2-103.767 38.45 208.698-162.65-104.931Zm0 0 216.99-17.8" stroke="#82C341" stroke-width=".75" stroke-miterlimit="10"/><path d="M563.123 476.246c0 30.461-12.11 59.675-33.666 81.215a114.982 114.982 0 0 1-81.276 33.641c-152.479-6.034-152.432-223.655 0-229.713a114.982 114.982 0 0 1 81.276 33.641 114.813 114.813 0 0 1 33.666 81.216Z" stroke="#F37021" stroke-width=".75" stroke-miterlimit="10" stroke-dasharray="2.18 2.18"/><path d="M529.503 665.141a82.006 82.006 0 0 1-6.253 31.406 82.05 82.05 0 0 1-17.806 26.623 82.113 82.113 0 0 1-26.648 17.785 82.173 82.173 0 0 1-31.431 6.239c-108.927-4.333-108.904-159.82 0-164.13a82.165 82.165 0 0 1 58.08 24.04 82.045 82.045 0 0 1 24.058 58.037Z" stroke="#F37021" stroke-width=".75" stroke-miterlimit="10" stroke-dasharray="2.26 2.26"/><path d="M778.482 327.259a67.857 67.857 0 0 1-19.899 48.004 67.962 67.962 0 0 1-48.04 19.884c-90.135-3.564-90.112-132.212 0-135.777a67.978 67.978 0 0 1 48.04 19.884 67.845 67.845 0 0 1 19.899 48.005Z" stroke="#F37021" stroke-width=".75" stroke-miterlimit="10" stroke-dasharray="2.23 2.23"/><path d="M1017.9 566.57c0 30.461-12.11 59.675-33.663 81.215a114.986 114.986 0 0 1-81.277 33.641c-152.479-6.034-152.432-223.655 0-229.713a114.986 114.986 0 0 1 81.277 33.641 114.823 114.823 0 0 1 33.663 81.216ZM1549.99 588.772c0 30.462-12.11 59.676-33.66 81.216a114.994 114.994 0 0 1-81.28 33.64c-152.48-6.057-152.43-223.655 0-229.712 30.49 0 59.72 12.101 81.28 33.64a114.833 114.833 0 0 1 33.66 81.216Z" stroke="#F37021" stroke-width=".75" stroke-miterlimit="10" stroke-dasharray="2.18 2.18"/><path d="M1617.61 682.358a81.99 81.99 0 0 1-6.26 31.409 81.896 81.896 0 0 1-17.8 26.628 82.146 82.146 0 0 1-26.65 17.792 82.194 82.194 0 0 1-31.43 6.247c-108.93-4.333-108.91-159.82 0-164.13a82.187 82.187 0 0 1 31.43 6.24 82.023 82.023 0 0 1 44.45 44.408 81.971 81.971 0 0 1 6.26 31.406Z" stroke="#F37021" stroke-width=".75" stroke-miterlimit="10" stroke-dasharray="2.26 2.26"/><path d="M1671.02 351.395a67.867 67.867 0 0 1-19.9 48.004 67.958 67.958 0 0 1-48.04 19.884c-90.13-3.587-90.11-132.212 0-135.777 18.02 0 35.3 7.153 48.04 19.884a67.87 67.87 0 0 1 19.9 48.005Z" stroke="#F37021" stroke-width=".75" stroke-miterlimit="10" stroke-dasharray="2.23 2.23"/><path d="m1127.65 964.862 54.95 1.048 50.73-37.998 98.53-82.892-34.27-76.276-73.77-63.578-48.1-63.951-33.81 6.336M1145.6 856.087l87.68 71.779M1155.11 916.287l27.46 49.624" stroke="#F37021" stroke-width=".75" stroke-miterlimit="10"/><path d="m1372.26 936.859-56.98-18.871 16.58-72.968M865.377 221.372l16.926 87.179M779.741 171.539l-43.855 24.928M702.103 44.731 708.328.116M654.634 105.607l47.469-60.76M654.634 105.747l81.252 90.72M757.149 316.798l-21.263-120.331M882.327 308.551l-125.178 8.247M779.741 171.539l85.356 49.833M891.886 166.18l-26.789 55.192M875.985 116.79l15.901 49.39M923.641 203.619l-31.779-37.439M728.192 394.495l28.957-77.697M764.074 53.304l-61.901-8.526M1164.62 688.205l59.2 16.984" stroke="#F37021" stroke-width=".75" stroke-miterlimit="10"/><path d="M1026.62 168.51c8.87 0 16.07-7.187 16.07-16.052 0-8.865-7.2-16.052-16.07-16.052-8.87 0-16.06 7.187-16.06 16.052 0 8.865 7.19 16.052 16.06 16.052ZM864.887 426.855c8.872 0 16.064-7.187 16.064-16.052 0-8.865-7.192-16.052-16.064-16.052s-16.064 7.187-16.064 16.052c0 8.865 7.192 16.052 16.064 16.052ZM710.52 348.203c11.576 0 20.96-9.377 20.96-20.944 0-11.568-9.384-20.945-20.96-20.945s-20.96 9.377-20.96 20.945c0 11.567 9.384 20.944 20.96 20.944ZM17.16 570.437c6.618 0 11.983-5.361 11.983-11.975 0-6.613-5.365-11.975-11.983-11.975-6.619 0-11.984 5.362-11.984 11.975 0 6.614 5.365 11.975 11.984 11.975ZM1048.14 250.61c11.58 0 20.96-9.377 20.96-20.944 0-11.567-9.38-20.945-20.96-20.945-11.57 0-20.96 9.378-20.96 20.945s9.39 20.944 20.96 20.944ZM1163.71 330.683c11.58 0 20.96-9.377 20.96-20.944 0-11.567-9.38-20.944-20.96-20.944-11.57 0-20.96 9.377-20.96 20.944 0 11.567 9.39 20.944 20.96 20.944ZM1167.93 241.641c6.62 0 11.99-5.362 11.99-11.975 0-6.614-5.37-11.975-11.99-11.975s-11.98 5.361-11.98 11.975c0 6.613 5.36 11.975 11.98 11.975ZM1703.66 655.612c5.91 0 10.7-4.787 10.7-10.693s-4.79-10.694-10.7-10.694c-5.91 0-10.7 4.788-10.7 10.694 0 5.906 4.79 10.693 10.7 10.693ZM949.846 173.752c5.911 0 10.702-4.788 10.702-10.693 0-5.906-4.791-10.694-10.702-10.694-5.91 0-10.701 4.788-10.701 10.694 0 5.905 4.791 10.693 10.701 10.693ZM1318.57 680.378c8.87 0 16.06-7.187 16.06-16.052 0-8.866-7.19-16.052-16.06-16.052-8.87 0-16.06 7.186-16.06 16.052 0 8.865 7.19 16.052 16.06 16.052ZM1803.19 413.529c8.87 0 16.07-7.187 16.07-16.052 0-8.865-7.2-16.052-16.07-16.052-8.87 0-16.06 7.187-16.06 16.052 0 8.865 7.19 16.052 16.06 16.052ZM1897.27 513.894c8.87 0 16.06-7.187 16.06-16.052 0-8.865-7.19-16.052-16.06-16.052-8.87 0-16.07 7.187-16.07 16.052 0 8.865 7.2 16.052 16.07 16.052ZM1742.2 580.618c8.87 0 16.06-7.187 16.06-16.052 0-8.865-7.19-16.052-16.06-16.052-8.87 0-16.06 7.187-16.06 16.052 0 8.865 7.19 16.052 16.06 16.052ZM1432.32 624.743c18.96 0 34.32-15.354 34.32-34.294 0-18.94-15.36-34.293-34.32-34.293-18.95 0-34.32 15.353-34.32 34.293 0 18.94 15.37 34.294 34.32 34.294ZM902.401 602.727c18.954 0 34.319-15.354 34.319-34.294 0-18.939-15.365-34.293-34.319-34.293s-34.32 15.354-34.32 34.293c0 18.94 15.366 34.294 34.32 34.294ZM1051.64 454.532c15.73 0 28.49-12.746 28.49-28.469s-12.76-28.469-28.49-28.469c-15.74 0-28.49 12.746-28.49 28.469s12.75 28.469 28.49 28.469ZM951.665 374.063c15.735 0 28.491-12.746 28.491-28.469 0-15.724-12.756-28.47-28.491-28.47s-28.491 12.746-28.491 28.47c0 15.723 12.756 28.469 28.491 28.469ZM1129.93 586.862c15.74 0 28.49-12.747 28.49-28.47 0-15.723-12.75-28.469-28.49-28.469-15.73 0-28.49 12.746-28.49 28.469s12.76 28.47 28.49 28.47ZM1344.68 783.795c5.91 0 10.7-4.788 10.7-10.694 0-5.906-4.79-10.693-10.7-10.693-5.91 0-10.7 4.787-10.7 10.693s4.79 10.694 10.7 10.694ZM196.404 574.421c9.271 0 16.787-7.51 16.787-16.774 0-9.264-7.516-16.774-16.787-16.774-9.271 0-16.787 7.51-16.787 16.774 0 9.264 7.516 16.774 16.787 16.774ZM105.173 525.589c9.271 0 16.787-7.51 16.787-16.774 0-9.264-7.516-16.774-16.787-16.774-9.27 0-16.787 7.51-16.787 16.774 0 9.264 7.516 16.774 16.787 16.774ZM180.923 643.731c6.619 0 11.984-5.362 11.984-11.975 0-6.614-5.365-11.975-11.984-11.975-6.618 0-11.984 5.361-11.984 11.975 0 6.613 5.366 11.975 11.984 11.975ZM82.348 605.453c6.618 0 11.984-5.361 11.984-11.975 0-6.613-5.365-11.975-11.984-11.975-6.618 0-11.984 5.362-11.984 11.975 0 6.614 5.365 11.975 11.984 11.975ZM1534.89 702.44c11.57 0 20.96-9.377 20.96-20.944 0-11.568-9.39-20.945-20.96-20.945-11.58 0-20.96 9.377-20.96 20.945 0 11.567 9.38 20.944 20.96 20.944ZM1696.01 456.28c11.58 0 20.96-9.377 20.96-20.945 0-11.567-9.38-20.944-20.96-20.944-11.57 0-20.96 9.377-20.96 20.944 0 11.568 9.39 20.945 20.96 20.945Z" fill="#630716"/><path d="M1477.88 237.144c5.91 0 10.7-4.787 10.7-10.693s-4.79-10.694-10.7-10.694c-5.91 0-10.7 4.788-10.7 10.694 0 5.906 4.79 10.693 10.7 10.693ZM304.772 322.04c9.271 0 16.786-7.51 16.786-16.774 0-9.264-7.515-16.774-16.786-16.774s-16.787 7.51-16.787 16.774c0 9.264 7.516 16.774 16.787 16.774ZM730.081 793.044c18.954 0 34.319-15.354 34.319-34.294 0-18.94-15.365-34.294-34.319-34.294s-34.32 15.354-34.32 34.294c0 18.94 15.366 34.294 34.32 34.294ZM326.781 235.024c6.618 0 11.984-5.361 11.984-11.975 0-6.613-5.366-11.975-11.984-11.975-6.619 0-11.984 5.362-11.984 11.975 0 6.614 5.365 11.975 11.984 11.975ZM240.423 229.316c6.618 0 11.983-5.361 11.983-11.975 0-6.613-5.365-11.974-11.983-11.974-6.619 0-11.984 5.361-11.984 11.974 0 6.614 5.365 11.975 11.984 11.975ZM763.001 636.672c11.576 0 20.96-9.378 20.96-20.945s-9.384-20.944-20.96-20.944-20.96 9.377-20.96 20.944c0 11.567 9.384 20.945 20.96 20.945ZM1296.16 383.801c11.58 0 20.96-9.377 20.96-20.944 0-11.567-9.38-20.944-20.96-20.944-11.57 0-20.96 9.377-20.96 20.944 0 11.567 9.39 20.944 20.96 20.944ZM1359.53 470.025c5.91 0 10.71-4.787 10.71-10.693s-4.8-10.694-10.71-10.694c-5.91 0-10.7 4.788-10.7 10.694 0 5.906 4.79 10.693 10.7 10.693ZM1277.28 269.271c5.91 0 10.7-4.787 10.7-10.693s-4.79-10.694-10.7-10.694c-5.91 0-10.7 4.788-10.7 10.694 0 5.906 4.79 10.693 10.7 10.693ZM1378.35 327.398c8.87 0 16.06-7.186 16.06-16.051 0-8.866-7.19-16.052-16.06-16.052-8.87 0-16.06 7.186-16.06 16.052 0 8.865 7.19 16.051 16.06 16.051ZM590.751 614.306c15.555 0 28.165-12.6 28.165-28.143 0-15.543-12.61-28.144-28.165-28.144-15.554 0-28.164 12.601-28.164 28.144 0 15.543 12.61 28.143 28.164 28.143Z" fill="#DE2531"/><path d="M1624.76 186.496c5.91 0 10.71-4.788 10.71-10.694 0-5.906-4.8-10.693-10.71-10.693-5.91 0-10.7 4.787-10.7 10.693s4.79 10.694 10.7 10.694ZM700.751 507.278c18.954 0 34.319-15.354 34.319-34.294 0-18.94-15.365-34.294-34.319-34.294s-34.32 15.354-34.32 34.294c0 18.94 15.366 34.294 34.32 34.294ZM212.701 475.896c15.555 0 28.165-12.6 28.165-28.143 0-15.543-12.61-28.143-28.165-28.143-15.554 0-28.164 12.6-28.164 28.143 0 15.543 12.61 28.143 28.164 28.143ZM447.365 693.261c15.555 0 28.164-12.6 28.164-28.143 0-15.543-12.609-28.144-28.164-28.144-15.555 0-28.164 12.601-28.164 28.144 0 15.543 12.609 28.143 28.164 28.143ZM1228.02 504.179c18.95 0 34.32-15.354 34.32-34.294 0-18.94-15.37-34.293-34.32-34.293-18.96 0-34.32 15.353-34.32 34.293 0 18.94 15.36 34.294 34.32 34.294ZM1050.19 698.899c18.96 0 34.32-15.354 34.32-34.294 0-18.94-15.36-34.294-34.32-34.294-18.95 0-34.32 15.354-34.32 34.294 0 18.94 15.37 34.294 34.32 34.294ZM1641.71 586.536c15.74 0 28.49-12.747 28.49-28.47 0-15.723-12.75-28.469-28.49-28.469-15.73 0-28.49 12.746-28.49 28.469s12.76 28.47 28.49 28.47ZM553.284 360.318c9.271 0 16.787-7.51 16.787-16.774 0-9.265-7.516-16.775-16.787-16.775-9.271 0-16.786 7.51-16.786 16.775 0 9.264 7.515 16.774 16.786 16.774ZM602.968 258.625c6.619 0 11.984-5.362 11.984-11.975 0-6.614-5.365-11.975-11.984-11.975-6.618 0-11.984 5.361-11.984 11.975 0 6.613 5.366 11.975 11.984 11.975ZM1603.22 370.312c11.58 0 20.96-9.377 20.96-20.944 0-11.567-9.38-20.944-20.96-20.944-11.57 0-20.96 9.377-20.96 20.944 0 11.567 9.39 20.944 20.96 20.944ZM1656.61 265.241c8.87 0 16.07-7.187 16.07-16.052 0-8.865-7.2-16.052-16.07-16.052-8.87 0-16.06 7.187-16.06 16.052 0 8.865 7.19 16.052 16.06 16.052ZM1479 487.405c18.95 0 34.32-15.354 34.32-34.294 0-18.94-15.37-34.294-34.32-34.294-18.95 0-34.32 15.354-34.32 34.294 0 18.94 15.37 34.294 34.32 34.294ZM1187.94 812.264c15.73 0 28.49-12.746 28.49-28.469s-12.76-28.47-28.49-28.47c-15.74 0-28.49 12.747-28.49 28.47 0 15.723 12.75 28.469 28.49 28.469ZM448.181 510.539c18.954 0 34.32-15.353 34.32-34.293 0-18.94-15.366-34.294-34.32-34.294s-34.319 15.354-34.319 34.294c0 18.94 15.365 34.293 34.319 34.293ZM304.772 568.713c15.554 0 28.164-12.6 28.164-28.143 0-15.543-12.61-28.144-28.164-28.144-15.555 0-28.165 12.601-28.165 28.144 0 15.543 12.61 28.143 28.165 28.143ZM413.955 360.411c11.576 0 20.96-9.377 20.96-20.944 0-11.568-9.384-20.945-20.96-20.945s-20.96 9.377-20.96 20.945c0 11.567 9.384 20.944 20.96 20.944ZM1000.07 868.504c11.57 0 20.96-9.377 20.96-20.944 0-11.568-9.39-20.945-20.96-20.945-11.579 0-20.963 9.377-20.963 20.945 0 11.567 9.384 20.944 20.963 20.944ZM829.379 883.345c5.91 0 10.701-4.788 10.701-10.694 0-5.906-4.791-10.693-10.701-10.693-5.911 0-10.702 4.787-10.702 10.693s4.791 10.694 10.702 10.694ZM880.042 788.943c8.872 0 16.064-7.186 16.064-16.052 0-8.865-7.192-16.052-16.064-16.052s-16.064 7.187-16.064 16.052c0 8.866 7.192 16.052 16.064 16.052ZM1540.39 286.768c8.87 0 16.06-7.187 16.06-16.052 0-8.865-7.19-16.052-16.06-16.052-8.87 0-16.07 7.187-16.07 16.052 0 8.865 7.2 16.052 16.07 16.052ZM1275.9 893.782c11.58 0 20.96-9.377 20.96-20.945 0-11.567-9.38-20.944-20.96-20.944-11.57 0-20.96 9.377-20.96 20.944 0 11.568 9.39 20.945 20.96 20.945Z" fill="#82C341"/><path d="M1127.65 971.735a6.874 6.874 0 1 0-6.88-6.873 6.876 6.876 0 0 0 6.88 6.873ZM1223.84 719.96c8.18 0 14.81-6.624 14.81-14.794 0-8.17-6.63-14.794-14.81-14.794-8.17 0-14.8 6.624-14.8 14.794 0 8.17 6.63 14.794 14.8 14.794ZM1297.59 787.522c10.38 0 18.79-8.407 18.79-18.778 0-10.37-8.41-18.777-18.79-18.777-10.38 0-18.79 8.407-18.79 18.777 0 10.371 8.41 18.778 18.79 18.778ZM1145.6 873.513c9.63 0 17.44-7.802 17.44-17.427 0-9.624-7.81-17.426-17.44-17.426-9.63 0-17.44 7.802-17.44 17.426 0 9.625 7.81 17.427 17.44 17.427ZM1233.31 945.316c9.63 0 17.44-7.802 17.44-17.427 0-9.624-7.81-17.426-17.44-17.426-9.63 0-17.44 7.802-17.44 17.426 0 9.625 7.81 17.427 17.44 17.427ZM1331.86 861.911c9.34 0 16.9-7.562 16.9-16.891 0-9.328-7.56-16.89-16.9-16.89s-16.9 7.562-16.9 16.89c0 9.329 7.56 16.891 16.9 16.891ZM1182.6 977c6.13 0 11.1-4.965 11.1-11.089 0-6.125-4.97-11.09-11.1-11.09s-11.1 4.965-11.1 11.09c0 6.124 4.97 11.089 11.1 11.089ZM1155.11 923.16c3.8 0 6.88-3.077 6.88-6.873a6.876 6.876 0 0 0-6.88-6.873c-3.8 0-6.88 3.077-6.88 6.873a6.876 6.876 0 0 0 6.88 6.873ZM1164.62 696.126c4.38 0 7.93-3.546 7.93-7.921 0-4.374-3.55-7.921-7.93-7.921a7.917 7.917 0 0 0-7.92 7.921 7.916 7.916 0 0 0 7.92 7.921ZM1175.72 652.84c6.43 0 11.63-5.205 11.63-11.625 0-6.421-5.2-11.626-11.63-11.626-6.42 0-11.63 5.205-11.63 11.626 0 6.42 5.21 11.625 11.63 11.625ZM1141.91 654.937c4.09 0 7.39-3.307 7.39-7.386 0-4.078-3.3-7.385-7.39-7.385a7.389 7.389 0 0 0-7.39 7.385 7.389 7.389 0 0 0 7.39 7.386ZM654.564 122.614c9.387 0 16.997-7.604 16.997-16.984 0-9.38-7.61-16.983-16.997-16.983s-16.996 7.603-16.996 16.983 7.609 16.984 16.996 16.984ZM735.886 213.451c9.387 0 16.997-7.604 16.997-16.984 0-9.38-7.61-16.984-16.997-16.984s-16.996 7.604-16.996 16.984c0 9.38 7.609 16.984 16.996 16.984ZM779.741 180.229c4.803 0 8.697-3.891 8.697-8.69 0-4.8-3.894-8.69-8.697-8.69-4.803 0-8.696 3.89-8.696 8.69 0 4.799 3.893 8.69 8.696 8.69ZM865.097 230.062c4.803 0 8.696-3.891 8.696-8.69 0-4.799-3.893-8.69-8.696-8.69s-8.696 3.891-8.696 8.69c0 4.799 3.893 8.69 8.696 8.69ZM891.886 174.87c4.803 0 8.696-3.89 8.696-8.69 0-4.799-3.893-8.69-8.696-8.69s-8.697 3.891-8.697 8.69c0 4.8 3.894 8.69 8.697 8.69ZM875.985 121.892a5.104 5.104 0 0 0 5.106-5.102 5.104 5.104 0 0 0-5.106-5.102 5.104 5.104 0 0 0-5.106 5.102 5.104 5.104 0 0 0 5.106 5.102ZM923.641 208.721a5.104 5.104 0 0 0 5.105-5.102 5.104 5.104 0 0 0-5.105-5.102 5.104 5.104 0 0 0-5.106 5.102 5.104 5.104 0 0 0 5.106 5.102ZM728.169 403.185c4.803 0 8.696-3.891 8.696-8.69 0-4.799-3.893-8.69-8.696-8.69s-8.697 3.891-8.697 8.69c0 4.799 3.894 8.69 8.697 8.69ZM882.327 325.535c9.387 0 16.996-7.604 16.996-16.984 0-9.38-7.609-16.984-16.996-16.984-9.387 0-16.997 7.604-16.997 16.984 0 9.38 7.61 16.984 16.997 16.984ZM757.149 329.705c7.134 0 12.917-5.779 12.917-12.907s-5.783-12.907-12.917-12.907c-7.133 0-12.916 5.779-12.916 12.907s5.783 12.907 12.916 12.907ZM1372.26 944.244c4.09 0 7.4-3.307 7.4-7.385 0-4.079-3.31-7.386-7.4-7.386a7.389 7.389 0 0 0-7.39 7.386 7.389 7.389 0 0 0 7.39 7.385Z" fill="#F37021"/></g><defs><clipPath id="a"><path fill="#fff" d="M0 0h1920v977H0z"/></clipPath></defs></svg>