<svg width="26" height="26" fill="none" xmlns="http://www.w3.org/2000/svg"><g clip-path="url(#a)"><path d="M13 26c7.18 0 13-5.82 13-13S20.18 0 13 0 0 5.82 0 13s5.82 13 13 13Z" fill="#F0F0F0"/><path d="M0 13c0 4.927 2.742 9.215 6.783 11.42V1.58A12.997 12.997 0 0 0 0 13Z" fill="#D80027"/><path d="M25.192 17.522C25.713 16.113 26 14.59 26 13c0-1.59-.286-3.113-.808-4.522H.809A12.97 12.97 0 0 0 0 13c0 1.59.286 3.113.809 4.522L13 18.652l12.192-1.13Z" fill="#D80027"/><path d="M13 26c5.59 0 10.355-3.528 12.192-8.478H.809C2.645 22.472 7.41 26 13 26Z" fill="#6DA544"/><path d="M0 13c0 6.006 4.074 11.06 9.609 12.552V.448C4.074 1.94 0 6.994 0 13Z" fill="#D80027"/><path d="M7.953 5.72 6.754 4.523l-.8.8-.798-.8-1.2 1.199.8.8-.8.798 1.2 1.2.799-.8.8.8 1.198-1.2-.8-.799.8-.8Z" fill="#F0F0F0"/></g><defs><clipPath id="a"><path fill="#fff" d="M0 0h26v26H0z"/></clipPath></defs></svg>