<svg width="26" height="26" fill="none" xmlns="http://www.w3.org/2000/svg"><g clip-path="url(#a)"><path d="M13 26c7.18 0 13-5.82 13-13S20.18 0 13 0 0 5.82 0 13s5.82 13 13 13Z" fill="#F0F0F0"/><path d="M26 13c0-7.18-5.82-13-13-13-2.543 0-4.915.731-6.919 1.993l2.85 1.21-3.844 1.634L8.93 6.47 5.087 8.103 8.93 9.736l-3.843 1.632 3.843 1.633-3.843 1.633 3.843 1.633-3.843 1.632 3.843 1.633-3.843 1.633 3.843 1.633-2.848 1.21A12.938 12.938 0 0 0 13 26c7.18 0 13-5.82 13-13Z" fill="#751A46"/></g><defs><clipPath id="a"><path fill="#fff" d="M0 0h26v26H0z"/></clipPath></defs></svg>