<svg width="26" height="26" fill="none" xmlns="http://www.w3.org/2000/svg"><path d="M13 25.188c6.731 0 12.188-5.457 12.188-12.188C25.188 6.269 19.73.812 13 .812 6.269.813.812 6.27.812 13 .813 19.731 6.27 25.188 13 25.188Z" fill="#699635"/><path d="M12.878 10.847c-.04-.366.163-.731.528-.65.285.04.61.325.447.61-.244.446-.894.446-1.3.69.04.244 1.219-.04 1.422-.04.203 0 .406.08.284.324-.122.244-.528.244-.771.285-.244.04-.65.04-.772.243-.244.325.243.366.406.447.406.203-.244.406-.406.366-.61-.122-.732-.447-1.097-.853-.366.487-1.503 1.584-1.747.447-.406.162-.813.365-1.26.406.204-.284.61-.406.935-.569.406-.203.406-.569.65-.894.081.122 0 .285.04.447.325-.162.732-.487.57-.893 0-.041-.488-1.016-.082-.854.366.163.244.528.325.813.122.528-.122.812-.528 1.137-.163.122-.61.61-.081.61.365 0 .69-.407.893-.65.244-.325.163-.65 0-1.016-.121-.284-.406-.894-.04-1.097.284.447.406.975.528 1.503.081.447.162.894.65 1.016-.04-.325.162-.569.447-.69-.203-.163-1.34.04-.894-.57.04-.284.853-.406.853-.568Z" fill="#fff"/><path d="M6.662 12.35c.204.569.894.366 1.3.203.65-.325.65-.812.65-1.462-.243.122-.203.568-.284.772-.162.325-.69.609-1.056.568-.528-.081-.772-.975-.366-1.3.082.285-.122.894.366.935.365.04 1.097-.407.975-.813-.488.163-.772 0-.61-.528.122-.487.61-.122.813.122.772-.447-.61-2.153.203-2.6.163.284.406.65.203.934-.243.325 0 1.016.04 1.382.407-.366.082.284.407.324.203.041.284-.487.406-.487.041.122.041.487.244.447.244-.081-.04-.406.203-.488.082.204.04.813-.244.772-.243-.04-.203-.203-.487-.04-.244.122-.325 0-.488-.122-.04.487.122 1.015-.162 1.462-.244.366-.731.569-1.138.65-1.056.203-1.34-.853-.974-1.706.08.244-.082.69 0 .975Zm9.913.203c.203.528.61-.569.731-.731.325-.488.813.772 1.016-.04.122-.529-.04-1.057-.081-1.585a1.741 1.741 0 0 0-.407-.975c-.243-.325-.487-.61-.365-1.016.406.163.406.488.61.813.04-.244-.123-.569.04-.772.203-.284.365.487.365.569.041.203-.162.284-.04.609.081.244.244.487.406.69-.04-.243-.406-1.909 0-1.909.122 0 .244.488.244.569.081.244-.082.447-.082.731-.04.488.041 1.056.366 1.422.163.203.772.934.447 1.178-.244-.284-.406-.61-.61-.893 0 .325.082.69-.08.934-.163-.081-.082-.61-.082-.731 0-.447-.284-.813-.528-1.178-.081.609.406 1.746-.162 2.193-.366.325-.854-.406-.976-.122-.121.204-.406.935-.73.854-.407-.082-.691-1.22-.244-1.341.04.203.04.487.162.731Z" fill="#fff"/><path d="M7.881 9.79c.285.041 0-.934 0-1.096.04-.163.163-.244.244-.082.122.244.122.529.162.772 0 .204.041.447-.121.61-.244.244-.57.122-.691-.203-.569.487.162 1.34-.325 1.828-.081-.447 0-.935-.163-1.34-.08-.204-.446-.123-.487-.488 0-.163.122-.61-.04-.732-.082.163-.163 1.422-.57 1.057-.324-.244-.243-1.057-.121-1.382.243.122-.04 1.016.284 1.057.163.04.203-.65.244-.772.122-.203.528-.772.447-.203-.04.243-.244 1.015.243.975-.04-.407-.08-.813-.162-1.22-.04-.202.081-.608.244-.243.122.244.04.366 0 .61-.04.284.081.568.122.812.243-.203-.082-.975.121-1.3.488.284-.04 1.26.57 1.34Zm5.24.082c-.202.284-.568.04-.73-.163-.204.244-.61.65-.935.325-.243-.243.04-.69-.162-.893-.122.203-.325 1.178-.69.73-.204-.243-.488-1.096-.041-1.3-.041.326-.122.691.08.976.204.284.407-.447.488-.61.122-.284.528-.771.447-.162-.04.244-.122.813.122.975.163.122.366-.081.447-.203.162-.203.081-.528.04-.772-.04-.203-.121-.447 0-.65.163-.244.285.325.285.447s.162 1.381.447.975c.284-.366-.488-1.178.04-1.381.204-.082.57.73.163.487.122.366.284.894 0 1.219Zm1.545.487c.04.528.487 1.991-.122 2.316-.082-.163 0-.406.04-.61.041-.365-.04-.73-.08-1.056-.082-.771-.163-1.34-.691-1.95-.122-.162-.325-.284-.366-.528 0-.081-.04-.447.122-.365.122.04.812.65.447.65.04.08.203.406.284.406 0-.203-.244-.813 0-.934.203-.122.447.65.366.812-.082.203-.082.325 0 .61.08.324.284.609.447.893.243.406.73.975.609 1.503-.244-.122-.406-.69-.528-.934-.082-.203-.163-.406-.285-.569-.04-.04-.284-.365-.243-.162v-.082Zm5.646.772c.041.853-.243 1.95-1.3 1.95 0-.243.529-.487.691-.61.406-.324.366-.934.325-1.38-.04-.61-.081-1.22-.203-1.829-.04-.365-.244-.893.081-1.137.203.162.488.61.366.772-.203.244 0 2.072.04 2.234Z" fill="#fff"/><path d="M15.113 12.96c1.056-.61.73-1.91.65-2.926-.041-.284-.041-.568-.082-.853 0-.203-.162-.487-.081-.69.203-.528.366-.041.406.284.04.203-.122.244-.081.406.04.325.04.65.081.975.04.528.122 1.056.081 1.544-.08.772-.487 1.625-1.421 1.463.04-.082.325-.122.447-.204Zm1.706-2.032c.04.406.203 1.138 0 1.503-.163.244-.163-.162-.203-.203-.041-.325-.041-.65-.041-1.015-.081-.894-.366-1.788-.366-2.641 0-1.097.935.61.407.528.04.61.122 1.219.203 1.828Zm-6.622-2.072c.081.203-.934.732-1.056.732-.041-.204.447-.488.568-.57.122-.121.204-.121.163-.284-.081-.162-.04-.446.162-.528.407-.122.122.488.163.65Zm-4.184 3.616c0 .325.121.162.284.081.081.163-.122.61-.325.406-.284-.284-.04-.934.081-1.218.081.203-.081.528-.04.73Zm11.456-2.519c.04-.162-.082-.325.04-.487.163-.203.325.04.244.122-.081.08-.203-.082-.203.162 0 .122.081.366-.04.488-.082-.041-.448-.57-.407-.65.163-.163.325.325.366.365Zm-10.603.69c-.082.163-1.016.691-1.057.57 0-.122 1.179-.813 1.057-.57Zm6.906 2.073c-.122.365.406.04.528 0-.163.284-.731.528-.65 0-.04 0-.122.04-.162.04-.082-.081.406-.406.284-.04Zm4.428-.122c.122 0 .325.365.203.447-.081.08-.447.121-.244-.041.244-.244.041-.406.041-.406Zm-5.728-2.072c.04-.081.04-.203.081-.284.406.325-.65.853-.447.08.082.082.082.204.163.245 0-.082.04-.204.04-.285.082.081.082.203.163.244Zm4.753.528c-.122-.163.61-.61.731-.69.082.121-.487.568-.731.69ZM19.5 9.425c-.081-.244-.325-.731-.081-.934.162.122.244.73.081.934Zm-4.428-.812c-.04-.082-.163-.163-.163-.285.041-.162.122-.122.204-.04.121.162.203.609 0 .73 0-.121.04-.284-.041-.405Zm-4.956 1.096c0 .244-.407.488-.447.163-.04-.122.162-.569.244-.447-.163.366-.163.488.203.284Z" fill="#fff"/><path d="M15.194 9.262c.162.407.081.041.243-.04.285.528-.609.406-.406.081.04.04.082.122.082.163.04-.041.04-.122.08-.204Zm2.6 1.87c-.203-.163.04-.366.162-.163.082.122.082.447-.081.528 0-.122.04-.284-.081-.366Zm-8.328.893c0-.081-.041-.69.08-.61.163.082.123.529-.08.61ZM7.759 8.206c.041.122.082.285.163.082.325.365-.813.243-.406-.122 0 .04.08.284.243.04Zm4.144.894c0-.162-.244-.853-.04-.853.243.04.203.65.04.853Zm-5.687-.366c-.122-.04.08-.243 0-.406-.082.04-.163-.081-.082-.162.325-.244.203.568.082.568Zm10.521 8.247-.162-.487-.162.487H7.516s.08.731.975.731h7.88v.57h2.154v-1.3h-1.787Zm1.382.975h-1.463v-.406h1.463v.406Z" fill="#fff"/></svg>