<svg width="26" height="26" fill="none" xmlns="http://www.w3.org/2000/svg"><g clip-path="url(#a)"><path d="M13 26c7.18 0 13-5.82 13-13S20.18 0 13 0 0 5.82 0 13s5.82 13 13 13Z" fill="#F0F0F0"/><path d="m7.348 17.522 1.13 7.67A12.97 12.97 0 0 0 13 26c5.59 0 10.355-3.528 12.191-8.478H7.348Z" fill="#000"/><path d="m7.348 8.478 1.13-7.67A12.97 12.97 0 0 1 13 0c5.59 0 10.355 3.528 12.191 8.478H7.348Z" fill="#6DA544"/><path d="M0 13c0 5.59 3.528 10.355 8.478 12.191V.81C3.528 2.645 0 7.41 0 13Z" fill="#A2001D"/></g><defs><clipPath id="a"><path fill="#fff" d="M0 0h26v26H0z"/></clipPath></defs></svg>