<svg width="26" height="26" viewBox="0 0 26 26" fill="none" xmlns="http://www.w3.org/2000/svg">
<path d="M0 13C0 15.5567 0.737896 17.94 1.99666 19.9333H24.0033C25.2621 17.94 26 15.5567 26 13C26 10.4433 25.2621 8.06 24.0033 6.06667H1.99666C0.737896 8.06 0 10.4433 0 13Z" fill="#F9F9F9"/>
<path d="M24.0468 6.06667C21.7463 2.42667 17.6661 0 13.0217 0C8.37731 0 4.29717 2.42667 1.99667 6.06667H24.0468Z" fill="#B4D7EE"/>
<path d="M1.99667 19.9333C4.29717 23.5733 8.37731 26 13.0217 26C17.6661 26 21.7463 23.5733 24.0468 19.9333H1.99667Z" fill="#B4D7EE"/>
<path d="M18.9683 12.9133L15.409 12.7833V12.74C15.9733 12.6533 16.4073 12.3067 17.015 12.35C17.7529 12.4367 18.187 12.0033 18.4474 11.9167C18.7512 11.83 18.9249 12.0033 18.9249 11.9167C18.9683 11.83 18.7512 11.6567 18.3172 11.7C17.9265 11.7433 17.7963 12.09 16.8848 12.0033C16.1035 11.96 15.8431 12.2633 15.2788 12.2633V12.22L18.4908 10.7467C18.4908 10.7467 18.5776 10.7033 18.5776 10.6167C18.5342 10.53 18.4474 10.5733 18.4474 10.5733L15.192 11.8733V11.83C15.6694 11.5267 15.9299 11.05 16.5375 10.8767C17.232 10.66 17.4925 10.14 17.7095 9.92333C17.9265 9.70667 18.187 9.83667 18.187 9.75C18.187 9.66333 17.9265 9.57667 17.5793 9.79333C17.232 10.01 17.232 10.3567 16.3639 10.6167C15.626 10.8333 15.4958 11.2233 14.9749 11.4833L14.9315 11.44L17.3623 8.84C17.3623 8.84 17.4491 8.75333 17.4057 8.71C17.3623 8.66667 17.2754 8.75333 17.2754 8.75333L14.6711 11.18L14.6277 11.1367C14.9749 10.66 15.0184 10.14 15.4958 9.75C16.0601 9.27333 16.0601 8.71 16.1903 8.45C16.3205 8.19 16.581 8.19 16.5375 8.10333C16.4941 8.01667 16.2337 8.06 15.9733 8.36333C15.7128 8.71 15.8431 9.01333 15.192 9.57667C14.6277 10.0533 14.6277 10.4867 14.2805 10.8767C14.2805 10.8767 14.237 10.8767 14.237 10.8333L15.4524 7.49667C15.4524 7.49667 15.4958 7.41 15.409 7.36667C15.3222 7.32333 15.2788 7.45333 15.2788 7.45333L13.803 10.66H13.7596C13.8898 10.0967 13.7596 9.57667 14.02 9.05667C14.3673 8.40667 14.1502 7.84333 14.1502 7.58333C14.1936 7.28 14.4107 7.19333 14.3673 7.15C14.3239 7.06333 14.0634 7.23667 13.9332 7.62667C13.8464 8.01667 14.0634 8.27667 13.6728 9.05667C13.3255 9.75 13.4992 10.0967 13.3255 10.6167H13.2821L13.1519 7.06333C13.1519 7.06333 13.1519 6.93333 13.0651 6.93333C12.9783 6.93333 12.9783 7.06333 12.9783 7.06333L12.8481 10.6167H12.8047C12.7179 10.0533 12.3706 9.62 12.414 9.01333C12.5008 8.27667 12.0668 7.84333 11.98 7.58333C11.8931 7.32333 12.0668 7.10667 11.98 7.10667C11.8931 7.06333 11.7195 7.28 11.7629 7.71333C11.8063 8.10333 12.1536 8.23333 12.0668 9.14333C12.0234 9.92333 12.3272 10.1833 12.3272 10.7467H12.2838L10.808 7.54C10.808 7.54 10.7646 7.45333 10.6778 7.45333C10.591 7.49667 10.6344 7.58333 10.6344 7.58333L11.8497 10.92H11.8063C11.5025 10.4433 11.025 10.1833 10.8514 9.57667C10.6344 8.88333 10.1135 8.62333 9.89648 8.40667C9.67945 8.19 9.80967 7.93 9.72286 7.93C9.63605 7.93 9.54924 8.19 9.76626 8.53667C9.98329 8.88333 10.3305 8.88333 10.591 9.75C10.808 10.4867 11.1987 10.6167 11.4591 11.1367L11.4157 11.18L8.81134 8.75333C8.81134 8.75333 8.72453 8.66667 8.68112 8.71C8.63772 8.75333 8.72453 8.84 8.72453 8.84L11.1552 11.44L11.1118 11.4833C10.6344 11.1367 10.1135 11.0933 9.72286 10.6167C9.2454 10.0533 8.68112 10.0533 8.42069 9.92333C8.16025 9.79333 8.16025 9.53333 8.07344 9.57667C7.98663 9.62 8.03004 9.88 8.33388 10.14C8.68112 10.4 8.98496 10.27 9.54924 10.92C10.0267 11.4833 10.4608 11.4833 10.8514 11.83C10.8514 11.83 10.8514 11.8733 10.808 11.8733L7.46576 10.66C7.46576 10.66 7.37895 10.6167 7.33555 10.7033C7.29214 10.79 7.42236 10.8333 7.42236 10.8333L10.6344 12.3067V12.35C10.0701 12.22 9.54924 12.35 9.02837 12.09C8.37728 11.7433 7.81301 11.96 7.55257 11.96C7.24873 11.9167 7.16192 11.7 7.11852 11.7433C7.03171 11.7867 7.20533 12.0467 7.59598 12.1767C7.98663 12.2633 8.24707 12.0467 9.02837 12.4367C9.72286 12.7833 10.0701 12.61 10.591 12.7833V12.8267L7.03171 12.9567C7.03171 12.9567 6.90149 12.9567 6.90149 13.0433C6.90149 13.13 7.03171 13.13 7.03171 13.13L10.591 13.26V13.3033C10.0267 13.39 9.59264 13.7367 8.98496 13.6933C8.24707 13.6067 7.81301 14.04 7.55257 14.1267C7.24873 14.2133 7.07511 14.04 7.07511 14.1267C7.03171 14.2133 7.24874 14.3867 7.68279 14.3433C8.11685 14.3 8.20366 13.9967 9.11518 14.04C9.89648 14.0833 10.1569 13.78 10.7212 13.78V13.8233L7.50917 15.2967C7.50917 15.2967 7.42236 15.34 7.42236 15.4267C7.42236 15.5133 7.55257 15.47 7.55257 15.47L10.8948 14.2567V14.3C10.4173 14.6033 10.1569 15.08 9.54924 15.2533C8.85474 15.47 8.59431 15.99 8.37728 16.2067C8.16025 16.4233 7.89982 16.2933 7.89982 16.38C7.89982 16.4667 8.16025 16.5533 8.5075 16.3367C8.85475 16.12 8.85474 15.7733 9.72286 15.5133C10.4608 15.2967 10.591 14.9067 11.1118 14.6467L11.1552 14.69L8.72453 17.29C8.72453 17.29 8.63772 17.3767 8.68112 17.42C8.72453 17.4633 8.81134 17.3767 8.81134 17.3767L11.4157 14.95L11.4591 14.9933C11.1118 15.47 11.0684 15.99 10.591 16.38C10.0267 16.8567 10.0267 17.42 9.89648 17.68C9.76626 17.94 9.50583 17.94 9.54924 18.0267C9.59264 18.1133 9.85308 18.07 10.1135 17.7667C10.3739 17.4633 10.2437 17.1167 10.8948 16.5533C11.4591 16.0767 11.4591 15.6433 11.8063 15.2533C11.8063 15.2533 11.8497 15.2533 11.8497 15.2967L10.6344 18.6333C10.6344 18.6333 10.591 18.72 10.6778 18.7633C10.7646 18.8067 10.808 18.6767 10.808 18.6767L12.2838 15.47H12.3272C12.197 16.0333 12.3272 16.5533 12.0668 17.0733C11.7195 17.7233 11.9365 18.2867 11.8931 18.5467C11.8497 18.85 11.6327 18.9367 11.6761 18.98C11.7195 19.0667 11.98 18.8933 12.1102 18.5033C12.197 18.1133 11.98 17.8967 12.3706 17.0733C12.7179 16.38 12.5442 16.0333 12.7178 15.5133H12.7613L12.8915 19.0667C12.8915 19.0667 12.8915 19.1967 12.9783 19.1967C13.0651 19.1967 13.0651 19.0667 13.0651 19.0667L13.1953 15.5133H13.2387C13.3255 16.0767 13.6728 16.51 13.6294 17.1167C13.5426 17.8533 13.9766 18.2867 14.0634 18.5467C14.1502 18.85 13.9766 19.0233 14.0634 19.0233C14.1502 19.0667 14.3239 18.85 14.2805 18.4167C14.237 18.0267 13.8898 17.8967 13.9766 16.9867C14.02 16.2067 13.7162 15.9467 13.7162 15.3833H13.7596L15.2354 18.59C15.2354 18.59 15.2788 18.6767 15.3656 18.6767C15.4524 18.6333 15.409 18.5467 15.409 18.5467L14.1502 15.1667H14.1936C14.4975 15.6433 14.9749 15.9033 15.1486 16.51C15.3656 17.2033 15.8865 17.4633 16.1035 17.68C16.3205 17.8967 16.1903 18.1567 16.2771 18.1567C16.3639 18.1567 16.4507 17.8967 16.2337 17.55C16.0167 17.2033 15.6694 17.2033 15.409 16.3367C15.192 15.6 14.8013 15.47 14.5409 14.95L14.5843 14.9067L17.1886 17.3333C17.1886 17.3333 17.2754 17.42 17.3189 17.3767C17.3623 17.3333 17.2754 17.2467 17.2754 17.2467L14.8447 14.6467L14.8881 14.6033C15.3656 14.95 15.8865 14.9933 16.2771 15.47C16.7546 16.0333 17.3189 16.0333 17.5793 16.1633C17.8397 16.2933 17.8397 16.5533 17.9265 16.51C18.0133 16.4667 17.9699 16.2067 17.6661 15.9467C17.3189 15.6867 17.015 15.8167 16.4507 15.1667C15.9733 14.6033 15.5392 14.6033 15.1486 14.2133C15.1486 14.2133 15.1486 14.17 15.192 14.17L18.5342 15.3833C18.5342 15.3833 18.621 15.4267 18.6644 15.34C18.7078 15.2533 18.5776 15.21 18.5776 15.21L15.3656 13.7367V13.6933C15.9299 13.8233 16.4507 13.6933 16.9716 13.9533C17.6227 14.3 18.187 14.0833 18.4474 14.0833C18.7512 14.1267 18.838 14.3433 18.8815 14.3C18.9683 14.2567 18.7946 13.9967 18.404 13.8667C18.0133 13.78 17.7529 13.9967 16.9716 13.6067C16.2771 13.26 15.9299 13.4333 15.409 13.26V13.2167L18.9683 13.0867C18.9683 13.0867 19.0985 13.0867 19.0985 13C19.0985 12.9133 18.9683 12.9133 18.9683 12.9133Z" fill="#F6B40E"/>
<path d="M14.3239 12.6966C14.1937 12.5666 14.02 12.48 13.8464 12.48C13.6728 12.48 13.5426 12.5666 13.4124 12.6966C13.6294 12.87 14.02 12.87 14.3239 12.6966ZM14.1937 12.6533C14.1068 12.74 14.02 12.7833 13.9332 12.7833C13.9766 12.74 14.02 12.6966 14.02 12.6533C14.02 12.61 13.9766 12.5666 13.9332 12.5233C14.0634 12.5666 14.1502 12.61 14.1937 12.6533ZM13.7162 12.5233C13.6728 12.5666 13.6728 12.61 13.6728 12.6533C13.6728 12.6966 13.7162 12.7833 13.7596 12.7833C13.6728 12.7833 13.586 12.74 13.4992 12.6533C13.586 12.61 13.6294 12.5666 13.7162 12.5233Z" fill="#85340A"/>
<path d="M13.8898 12.35C13.6294 12.35 13.586 12.3933 13.4992 12.48C13.3689 12.5666 13.3255 12.5666 13.3255 12.5666C13.3255 12.5666 13.3255 12.6533 13.3689 12.61C13.4123 12.61 13.4992 12.5666 13.586 12.48C13.7162 12.3933 13.803 12.3933 13.9332 12.3933C14.2805 12.3933 14.4541 12.6533 14.4975 12.6533C14.5409 12.6533 14.2371 12.35 13.8898 12.35Z" fill="#85340A"/>
<path d="M13.1519 12.3066C13.1085 12.3933 13.1085 12.4366 13.1085 12.5233C13.0651 12.7833 13.1085 13.0866 13.2821 13.39C13.2821 13.39 13.3255 13.3466 13.369 13.3466C13.1953 13.13 13.1519 12.87 13.1519 12.6533C13.1519 12.5233 13.2387 12.4366 13.2821 12.35C13.586 12.09 14.1069 12.1333 14.5409 12.48C14.1503 11.9166 13.586 11.96 13.1519 12.3066Z" fill="#85340A"/>
<path d="M13.586 12.87C13.4557 12.7833 13.4123 12.74 13.3689 12.74C13.3255 12.74 13.3255 12.7833 13.4991 12.87C13.6728 12.9566 14.02 13 14.3239 12.74C13.9766 12.9133 13.7162 12.9133 13.586 12.87Z" fill="#85340A"/>
<path d="M13.3689 13.5633C13.3255 13.5633 13.2821 13.52 13.2387 13.4766C13.2387 13.52 13.1519 13.6066 13.0217 13.6066C12.8915 13.6066 12.8047 13.4766 12.8047 13.4766C12.8047 13.52 12.7613 13.5633 12.6744 13.5633C12.631 13.5633 12.5442 13.52 12.5442 13.4333C12.5442 13.39 12.5876 13.3466 12.631 13.3466C12.5442 13.3466 12.5008 13.4333 12.5008 13.52C12.5008 13.6066 12.5876 13.6933 12.6744 13.6933C12.7179 13.6933 12.7613 13.65 12.8047 13.6066C12.8481 13.65 12.9783 13.65 13.0217 13.65H13.0651C13.1085 13.65 13.1953 13.65 13.2821 13.6066C13.3255 13.65 13.3689 13.6933 13.4123 13.6933C13.4992 13.6933 13.586 13.6066 13.586 13.52C13.586 13.4333 13.5426 13.39 13.4557 13.3466C13.4992 13.3466 13.5426 13.39 13.5426 13.4333C13.4992 13.52 13.4557 13.5633 13.3689 13.5633Z" fill="#85340A"/>
<path d="M13.0217 13.9533C13.1085 13.9533 13.1953 13.8666 13.3256 13.9533C13.4558 14.04 13.5426 14.0833 13.6294 14.1266C13.4558 13.9966 13.369 13.8666 13.1953 13.8666C13.1519 13.8666 13.0651 13.8666 13.0217 13.91C12.9349 13.8666 12.8915 13.8666 12.8481 13.8666C12.6745 13.8666 12.5877 14.04 12.414 14.1266C12.5008 14.0833 12.5877 13.9966 12.7179 13.9533C12.8481 13.91 12.9349 13.9533 13.0217 13.9533Z" fill="#85340A"/>
<path d="M13.0217 14.0833C12.9349 14.0833 12.8915 14.04 12.7613 14.0833C12.6745 14.0833 12.5877 14.0833 12.4574 14.1266H12.414C12.8047 14.17 12.6311 14.3866 13.0217 14.3866C13.4124 14.3866 13.2387 14.17 13.6294 14.1266H13.5426C13.1953 13.9966 13.1519 14.0833 13.0217 14.0833ZM13.0217 14.3C12.7179 14.3 12.8047 14.0833 12.4574 14.0833C12.8047 13.9966 12.8481 14.1266 13.0217 14.1266C13.1519 14.1266 13.2387 14.04 13.586 14.0833C13.2387 14.1266 13.3256 14.3 13.0217 14.3Z" fill="#85340A"/>
<path d="M13.0217 14.3866C12.8481 14.3866 12.6745 14.5166 12.6745 14.7333C12.7179 14.56 12.8481 14.4733 13.0217 14.4733C13.1953 14.4733 13.3256 14.6033 13.369 14.7333C13.369 14.5166 13.1953 14.3866 13.0217 14.3866Z" fill="#85340A"/>
<path d="M12.7613 12.35C12.8481 12.4366 12.8915 12.5666 12.8915 12.6533C12.9349 12.87 12.8481 13.0866 12.6745 13.3466C12.6745 13.3466 12.7179 13.3466 12.7613 13.39C12.8915 13.0866 12.9783 12.8266 12.9349 12.5233C12.9349 12.4366 12.8915 12.3933 12.8915 12.3066C12.5008 11.96 11.9366 11.9166 11.5025 12.48C11.9366 12.09 12.5008 12.0466 12.7613 12.35Z" fill="#85340A"/>
<path d="M12.5008 12.5233C12.631 12.61 12.6744 12.6533 12.7178 12.6533C12.7613 12.6533 12.7613 12.61 12.7613 12.61C12.7613 12.61 12.6744 12.61 12.5876 12.5233C12.4574 12.4366 12.414 12.3933 12.197 12.3933C11.8063 12.3933 11.5893 12.6966 11.6327 12.6966C11.6761 12.6966 11.8497 12.4366 12.197 12.4366C12.2838 12.4366 12.414 12.4366 12.5008 12.5233Z" fill="#85340A"/>
<path d="M11.7629 12.6966C11.8498 12.7833 12.0234 12.8266 12.197 12.8266C12.3272 12.8266 12.5008 12.7833 12.6311 12.6966C12.5008 12.5666 12.3272 12.48 12.1536 12.48C12.0234 12.48 11.8498 12.5666 11.7629 12.6966ZM11.8498 12.6966C11.9366 12.61 12.0234 12.5233 12.1102 12.5233C12.0668 12.5666 12.0234 12.61 12.0234 12.6533C12.0234 12.74 12.0668 12.7833 12.1102 12.7833C12.0234 12.8266 11.8932 12.7833 11.8498 12.6966ZM12.5008 12.6533C12.4574 12.6966 12.3706 12.74 12.2838 12.7833C12.3272 12.74 12.3272 12.6966 12.3272 12.6533C12.3272 12.61 12.2838 12.5666 12.2838 12.5233C12.414 12.5666 12.5008 12.61 12.5008 12.6533Z" fill="#85340A"/>
<path d="M12.7179 12.74C12.6745 12.74 12.6311 12.7833 12.5008 12.87C12.3706 12.9566 12.1102 12.9566 11.7629 12.7833C12.0668 13.0433 12.414 13 12.5876 12.9133C12.7613 12.7833 12.7613 12.74 12.7179 12.74Z" fill="#85340A"/>
</svg>
