<svg width="26" height="26" viewBox="0 0 26 26" fill="none" xmlns="http://www.w3.org/2000/svg">
<g clip-path="url(#clip0_1_139)">
<path d="M13 26C20.1797 26 26 20.1797 26 13C26 5.8203 20.1797 0 13 0C5.8203 0 0 5.8203 0 13C0 20.1797 5.8203 26 13 26Z" fill="#F0F0F0"/>
<path d="M13 0C10.3911 0 7.96211 0.769082 5.92619 2.09209L9.26957 4.33301L5.08698 6.49964L9.26957 8.66628L5.08698 10.8329L9.26957 12.9993L5.08698 15.1659L9.26957 17.3325L5.08698 19.4993L9.26957 21.6659L5.92578 23.9076C7.9618 25.2308 10.3909 26 13 26C20.1797 26 26 20.1797 26 13C26 5.82034 20.1797 0 13 0V0Z" fill="#D80027"/>
</g>
<defs>
<clipPath id="clip0_1_139">
<rect width="26" height="26" fill="white"/>
</clipPath>
</defs>
</svg>
