<svg width="26" height="26" viewBox="0 0 26 26" fill="none" xmlns="http://www.w3.org/2000/svg">
<path d="M25.7833 10.7467C24.7433 4.63667 19.4133 0 13 0C6.58667 0 1.25667 4.63667 0.216675 10.7467L13 4.33333L25.7833 10.7467Z" fill="#699635"/>
<path d="M0.216675 15.2533C1.25667 21.3633 6.58667 26 13 26C19.4133 26 24.7433 21.3633 25.7833 15.2533L13 21.6667L0.216675 15.2533Z" fill="#699635"/>
<path d="M13 4.33333L0.216667 10.7467C0.0866667 11.4833 0 12.22 0 13C0 13.78 0.0866667 14.5167 0.216667 15.2533L13 21.6667L25.7833 15.2533C25.9133 14.5167 26 13.78 26 13C26 12.22 25.9133 11.4833 25.7833 10.7467L13 4.33333Z" fill="#FFE62E"/>
<path d="M10.4 11.44C9.01333 11.44 7.71333 11.7433 6.54333 12.2633C6.5 12.5233 6.5 12.74 6.5 13C6.5 16.5967 9.40333 19.5 13 19.5C15.4267 19.5 17.55 18.1567 18.6767 16.2067C17.0733 13.39 13.9533 11.44 10.4 11.44Z" fill="#428BC1"/>
<path d="M19.4133 14.04C19.4567 13.6933 19.5 13.3467 19.5 13C19.5 9.40333 16.5967 6.5 13 6.5C10.4433 6.5 8.23333 7.97333 7.14999 10.14C8.18999 9.83667 9.27333 9.66333 10.4 9.66333C14.0833 9.66333 17.3333 11.3967 19.4133 14.04Z" fill="#428BC1"/>
<path d="M10.4 9.66333C9.27333 9.66333 8.19 9.83666 7.15 10.14C6.84667 10.79 6.63 11.4833 6.54333 12.2633C7.71334 11.7433 9.01333 11.44 10.4 11.44C13.9533 11.44 17.0733 13.3467 18.6767 16.1633C19.0667 15.5133 19.2833 14.7767 19.4133 14.04C17.3333 11.3967 14.0833 9.66333 10.4 9.66333Z" fill="white"/>
<path d="M8.66667 13.4333C8.90599 13.4333 9.10001 13.2393 9.10001 13C9.10001 12.7607 8.90599 12.5667 8.66667 12.5667C8.42735 12.5667 8.23334 12.7607 8.23334 13C8.23334 13.2393 8.42735 13.4333 8.66667 13.4333Z" fill="white"/>
<path d="M10.4 16.0333C10.6393 16.0333 10.8333 15.8393 10.8333 15.6C10.8333 15.3607 10.6393 15.1667 10.4 15.1667C10.1607 15.1667 9.96667 15.3607 9.96667 15.6C9.96667 15.8393 10.1607 16.0333 10.4 16.0333Z" fill="white"/>
<path d="M13 16.0333C13.2393 16.0333 13.4333 15.8393 13.4333 15.6C13.4333 15.3607 13.2393 15.1667 13 15.1667C12.7607 15.1667 12.5667 15.3607 12.5667 15.6C12.5667 15.8393 12.7607 16.0333 13 16.0333Z" fill="white"/>
<path d="M13 17.7667C13.2393 17.7667 13.4333 17.5727 13.4333 17.3333C13.4333 17.094 13.2393 16.9 13 16.9C12.7607 16.9 12.5667 17.094 12.5667 17.3333C12.5667 17.5727 12.7607 17.7667 13 17.7667Z" fill="white"/>
<path d="M16.4667 16.0333C16.706 16.0333 16.9 15.8393 16.9 15.6C16.9 15.3607 16.706 15.1667 16.4667 15.1667C16.2273 15.1667 16.0333 15.3607 16.0333 15.6C16.0333 15.8393 16.2273 16.0333 16.4667 16.0333Z" fill="white"/>
<path d="M16.4667 17.7667C16.706 17.7667 16.9 17.5727 16.9 17.3333C16.9 17.094 16.706 16.9 16.4667 16.9C16.2273 16.9 16.0333 17.094 16.0333 17.3333C16.0333 17.5727 16.2273 17.7667 16.4667 17.7667Z" fill="white"/>
<path d="M14.7333 16.9C14.9726 16.9 15.1667 16.706 15.1667 16.4667C15.1667 16.2273 14.9726 16.0333 14.7333 16.0333C14.494 16.0333 14.3 16.2273 14.3 16.4667C14.3 16.706 14.494 16.9 14.7333 16.9Z" fill="white"/>
<path d="M8.66667 15.1667C8.90599 15.1667 9.10001 14.9727 9.10001 14.7333C9.10001 14.494 8.90599 14.3 8.66667 14.3C8.42735 14.3 8.23334 14.494 8.23334 14.7333C8.23334 14.9727 8.42735 15.1667 8.66667 15.1667Z" fill="white"/>
</svg>
