<svg width="26" height="26" viewBox="0 0 26 26" fill="none" xmlns="http://www.w3.org/2000/svg">
<g clip-path="url(#clip0_1_152)">
<path d="M13 26C20.1797 26 26 20.1797 26 13C26 5.8203 20.1797 0 13 0C5.8203 0 0 5.8203 0 13C0 20.1797 5.8203 26 13 26Z" fill="#F0F0F0"/>
<path d="M26 13C26 20.1797 20.1797 26 13 26C5.82034 26 0 20.1797 0 13C0 5.82035 13 13 13 13C13 13 22.8394 13 26 13Z" fill="#D80027"/>
<path d="M0 13C0 5.82034 5.82034 0 13 0V13C13 13 4.52171 13 0 13Z" fill="#0052B4"/>
<path d="M7.73853 4.52173L8.58033 7.11249H11.3044L9.10058 8.71362L9.94233 11.3044L7.73853 9.70319L5.53472 11.3044L6.37647 8.71362L4.17267 7.11249H6.89673L7.73853 4.52173Z" fill="#F0F0F0"/>
</g>
<defs>
<clipPath id="clip0_1_152">
<rect width="26" height="26" fill="white"/>
</clipPath>
</defs>
</svg>
