<svg width="26" height="26" viewBox="0 0 26 26" fill="none" xmlns="http://www.w3.org/2000/svg">
<g clip-path="url(#clip0_1_142)">
<path d="M25.1914 17.5217C25.7139 16.1134 26 14.5902 26 13C26 11.4098 25.7139 9.8866 25.1914 8.47828L13 7.34784L0.80859 8.47828C0.286051 9.8866 0 11.4098 0 13C0 14.5902 0.286051 16.1134 0.80859 17.5217L13 18.6522L25.1914 17.5217Z" fill="#F0F0F0"/>
<path d="M13 26C18.5895 26 23.3546 22.4721 25.1914 17.5217H0.808533C2.64539 22.4721 7.4104 26 13 26Z" fill="#D80027"/>
<path d="M13 0C7.4104 0 2.64539 3.52787 0.808533 8.47828H25.1914C23.3546 3.52787 18.5895 0 13 0Z" fill="#6DA544"/>
<path d="M3.8076 3.80757C-1.2692 8.88438 -1.2692 17.1156 3.8076 22.1924C5.13274 20.8673 6.42614 19.5739 8.47826 17.5218V8.47828L3.8076 3.80757Z" fill="black"/>
</g>
<defs>
<clipPath id="clip0_1_142">
<rect width="26" height="26" fill="white"/>
</clipPath>
</defs>
</svg>
