<svg width="26" height="26" viewBox="0 0 26 26" fill="none" xmlns="http://www.w3.org/2000/svg">
<g clip-path="url(#clip0_1_157)">
<path d="M13 26C20.1797 26 26 20.1797 26 13C26 5.8203 20.1797 0 13 0C5.8203 0 0 5.8203 0 13C0 20.1797 5.8203 26 13 26Z" fill="#F0F0F0"/>
<path d="M26 13C26 7.84601 23.0006 3.3927 18.6522 1.28995V24.71C23.0006 22.6073 26 18.154 26 13Z" fill="#D80027"/>
<path d="M0 13C0 18.154 2.99939 22.6073 7.34784 24.7101V1.28995C2.99939 3.3927 0 7.84601 0 13Z" fill="#6DA544"/>
<path d="M9.6087 13C9.6087 14.873 11.1271 16.3913 13 16.3913C14.873 16.3913 16.3914 14.873 16.3914 13V11.8696H9.6087V13Z" fill="#6DA544"/>
<path d="M17.5217 10.7391H14.1304C14.1304 10.1148 13.6243 9.60867 13 9.60867C12.3757 9.60867 11.8695 10.1148 11.8695 10.7391H8.47821C8.47821 11.3635 9.02203 11.8696 9.64628 11.8696H9.60865C9.60865 12.4939 10.1147 13 10.7391 13C10.7391 13.6244 11.2452 14.1304 11.8695 14.1304H14.1304C14.7548 14.1304 15.2609 13.6244 15.2609 13C15.8852 13 16.3913 12.4939 16.3913 11.8696H16.3536C16.978 11.8696 17.5217 11.3635 17.5217 10.7391Z" fill="#FF9811"/>
</g>
<defs>
<clipPath id="clip0_1_157">
<rect width="26" height="26" fill="white"/>
</clipPath>
</defs>
</svg>
