<svg width="160" height="62" viewBox="0 0 160 62" fill="none" xmlns="http://www.w3.org/2000/svg">
<g clip-path="url(#clip0_2_406)">
<path d="M23.2222 31.7701C23.2222 24.0139 19.5991 20.4165 13.4994 20.4165C7.39957 20.4165 3.75267 24.0139 3.75267 31.7701V45.313C3.75267 46.582 2.88102 47.2156 1.87633 47.2156C0.871642 47.2156 0 46.582 0 45.313V31.7701C0 21.5447 5.30149 16.8896 13.4908 16.8896C21.6802 16.8896 26.9817 21.5447 26.9817 31.7701V45.313C26.9817 46.582 26.1083 47.2156 25.1053 47.2156C24.1023 47.2156 23.229 46.582 23.229 45.313L23.2222 31.7701Z" fill="#D51F28"/>
<path d="M38.4563 33.8873C39.0601 39.8114 43.2887 43.9016 50.2021 43.9016C55.1693 43.9016 57.9872 41.9973 59.4644 40.8691C61.2759 39.741 62.6865 42.4145 61.2759 43.8312C59.7322 45.313 55.6384 47.4285 49.8661 47.4285C40.5373 47.4285 34.6302 41.3619 34.6302 32.4055C34.6302 24.1547 39.4627 16.8896 49.5983 16.8896C57.2486 16.8896 62.0145 21.0502 62.0145 27.3279C62.0145 33.8169 57.4516 37.2014 50.0008 37.2014C45.032 37.2014 41.8797 36.3548 38.4563 33.8873ZM38.4563 30.3604C42.2823 32.8296 45.4362 33.6744 49.5983 33.6744C55.3705 33.6744 58.3232 31.1365 58.3232 27.1871C58.3232 23.2378 55.2358 20.353 49.6648 20.353C42.3488 20.353 39.1283 24.9291 38.4563 30.3604Z" fill="#D51F28"/>
<path d="M125.373 19.4944C125.373 18.1534 126.313 17.5902 127.249 17.5902C128.186 17.5902 129.126 18.1534 129.126 19.4944V33.0356C129.126 43.2611 123.69 47.9162 115.635 47.9162C107.58 47.9162 102.146 43.2611 102.146 33.0356V19.4944C102.146 18.1534 103.086 17.5902 104.022 17.5902C104.959 17.5902 105.898 18.2238 105.898 19.4944V32.9652C105.898 40.2991 109.187 44.2501 115.621 44.2501C122.055 44.2501 125.354 40.3008 125.354 32.9652L125.373 19.4944Z" fill="#D51F28"/>
<path d="M147.516 47.7101C142.55 47.7101 139.328 46.7932 137.046 46.0171C135.169 45.0297 136.24 41.9269 138.322 42.703C141.139 43.6199 143.623 44.1832 147.65 44.1832C152.416 44.1832 156.107 42.6378 156.107 38.6884C156.107 30.2247 137.046 35.656 137.046 24.8639C137.046 17.8117 144.496 17.1059 148.389 17.1059C152.348 17.1059 155.57 17.8117 158.12 19.0806C159.997 19.9976 158.994 23.03 156.979 22.326C154.296 21.2682 152.08 20.6329 148.389 20.6329C145.704 20.6329 140.872 20.9145 140.872 24.7935C140.872 31.9882 160 26.9811 160 38.6884C160 45.5242 153.689 47.7101 147.516 47.7101Z" fill="#D51F28"/>
<path d="M62.5382 54.2386C62.1306 53.3841 61.4936 52.6614 60.6994 52.1522C59.9051 51.643 58.9851 51.3677 58.0435 51.3573C55.2512 51.3573 52.9791 53.7441 52.9791 56.6804C52.9791 59.6166 55.2512 62.0034 58.0435 62.0034C60.3565 62.0034 62.3079 60.3636 62.91 58.1331C63.2665 56.8348 63.1341 55.4497 62.5382 54.2438V54.2386ZM58.0435 60.5336C56.0171 60.5336 54.3676 58.801 54.3676 56.6718C54.3676 54.5426 56.0171 52.81 58.0435 52.81C60.07 52.81 61.7177 54.5426 61.7177 56.6718C61.7177 58.801 60.07 60.5336 58.0435 60.5336Z" fill="#D51F28"/>
<path d="M85.0098 24.7128C87.4746 17.0201 93.7518 11.1475 101.469 9.60212V13.6185C101.468 13.7601 101.506 13.8992 101.579 14.0204C101.652 14.1416 101.756 14.2402 101.881 14.3053C102.004 14.3683 102.143 14.3936 102.28 14.378C102.417 14.3624 102.547 14.3067 102.652 14.2177L110.342 7.84723C110.429 7.77324 110.498 7.68116 110.546 7.57738C110.594 7.4736 110.618 7.3606 110.618 7.24624C110.618 7.13187 110.594 7.01888 110.546 6.9151C110.498 6.81131 110.429 6.71923 110.342 6.64525L102.651 0.166555C102.523 0.0564587 102.361 -0.00441465 102.194 -0.00515703C102.084 -0.00528029 101.976 0.0206041 101.878 0.0703966C101.753 0.135447 101.648 0.233974 101.575 0.355151C101.502 0.476327 101.463 0.61546 101.464 0.757244V5.63386C92.4094 7.17927 84.9484 13.7816 81.7944 22.5818C81.965 23.0472 82.1117 23.5194 82.2533 23.9967C83.2066 24.0713 84.1396 24.3136 85.0098 24.7128Z" fill="#EE6634"/>
<path d="M78.3727 39.8578C75.8141 47.0988 69.8439 52.6125 62.5381 54.2386C63.1345 55.4451 63.2669 56.8308 62.91 58.1296C71.6094 56.3472 78.736 49.8874 81.7996 41.3328C81.8951 41.0666 81.9838 40.797 82.0708 40.5274C81.9258 40.5274 81.7791 40.5394 81.6324 40.5394C80.5108 40.5405 79.4011 40.3084 78.3727 39.8578Z" fill="#EE6634"/>
<path d="M82.2584 24.007C82.1169 23.5297 81.9668 23.0575 81.7996 22.5921C78.7292 14.046 71.6128 7.57764 62.91 5.79527C62.3079 3.56301 60.3514 1.92488 58.0435 1.92488C55.2512 1.92488 52.9791 4.31168 52.9791 7.24795C52.9791 10.1842 55.2512 12.571 58.0435 12.571C58.9852 12.5608 59.9052 12.2856 60.6995 11.7764C61.4938 11.2672 62.1307 10.5443 62.5382 9.68969C70.0265 11.3553 76.099 17.0956 78.5467 24.5908C79.5267 24.19 80.5746 23.9842 81.6324 23.9847C81.8439 23.9796 82.0469 23.9899 82.2584 24.007ZM58.0367 11.108C56.0103 11.108 54.3608 9.37546 54.3608 7.24623C54.3608 5.11701 56.0103 3.38443 58.0367 3.38443C60.0631 3.38443 61.7109 5.11701 61.7109 7.24623C61.7109 9.37546 60.07 11.108 58.0435 11.108H58.0367Z" fill="#D51F28"/>
<path d="M105.554 51.3573C104.612 51.3675 103.692 51.6428 102.898 52.152C102.104 52.6612 101.467 53.384 101.059 54.2386C93.7006 52.6022 87.71 47.0267 85.1804 39.7273C84.2065 40.1978 83.1496 40.4692 82.0708 40.5257C81.9838 40.7953 81.9002 41.0649 81.7996 41.331C84.8699 49.8754 91.9846 56.3438 100.686 58.1279C101.288 60.3602 103.244 61.9983 105.554 61.9983C108.346 61.9983 110.617 59.6115 110.617 56.6752C110.617 53.739 108.346 51.3573 105.554 51.3573ZM105.554 60.5405C103.527 60.5405 101.878 58.8079 101.878 56.6787C101.878 54.5494 103.527 52.8169 105.554 52.8169C107.58 52.8169 109.228 54.5494 109.228 56.6787C109.228 58.8079 107.58 60.5336 105.554 60.5336V60.5405Z" fill="#D51F28"/>
<path d="M89.1531 32.2595C89.1465 34.1494 88.4402 35.9688 87.1722 37.3625C85.9041 38.7561 84.1655 39.6238 82.296 39.7959C82.0759 39.8148 81.8559 39.8303 81.6307 39.8303C79.6555 39.8003 77.7713 38.9894 76.385 37.5727C74.9987 36.156 74.2216 34.2473 74.2216 32.2587C74.2216 30.2701 74.9987 28.3613 76.385 26.9446C77.7713 25.5279 79.6555 24.717 81.6307 24.687C81.9107 24.6876 82.1903 24.7048 82.4683 24.7385C84.3038 24.9512 85.9982 25.8343 87.2302 27.2204C88.4623 28.6066 89.1464 30.3995 89.1531 32.2595Z" fill="#8AC640"/>
</g>
<defs>
<clipPath id="clip0_2_406">
<rect width="160" height="62" fill="white"/>
</clipPath>
</defs>
</svg>
