<svg width="1917" height="977" viewBox="0 0 1917 977" fill="none" xmlns="http://www.w3.org/2000/svg">
<g opacity="0.1" clip-path="url(#clip0_2_191)">
<path d="M1696.01 435.335L1742.2 564.566L1703.66 644.919" stroke="#630716" stroke-width="0.75" stroke-miterlimit="10"/>
<path d="M1344.68 773.101L1318.57 664.326L1432.32 590.449L1479.02 453.135" stroke="#630716" stroke-width="0.75" stroke-miterlimit="10"/>
<path d="M1534.89 681.496L1432.39 590.426L1696.04 435.335" stroke="#630716" stroke-width="0.75" stroke-miterlimit="10"/>
<path d="M1897.27 497.842L1696.01 435.359L1803.19 397.477" stroke="#630716" stroke-width="0.75" stroke-miterlimit="10"/>
<path d="M180.923 631.756L196.404 557.647" stroke="#630716" stroke-width="0.75" stroke-miterlimit="10"/>
<path d="M82.3713 593.478C82.5112 590.1 105.173 508.839 105.173 508.839L196.427 557.763L212.748 447.846L107.621 507.464L17.2297 558.485" stroke="#630716" stroke-width="0.75" stroke-miterlimit="10"/>
<path d="M710.543 327.282L553.284 343.544" stroke="#630716" stroke-width="0.75" stroke-miterlimit="10"/>
<path d="M951.665 345.617L1050.19 664.605" stroke="#630716" stroke-width="0.75" stroke-miterlimit="10"/>
<path d="M864.887 410.803L951.665 345.617" stroke="#630716" stroke-width="0.75" stroke-miterlimit="10"/>
<path d="M1051.64 426.063L1048.14 229.712L1163.71 309.739L1167.93 229.666" stroke="#630716" stroke-width="0.75" stroke-miterlimit="10"/>
<path d="M1051.64 426.063L902.377 568.433" stroke="#630716" stroke-width="0.75" stroke-miterlimit="10"/>
<path d="M1129.93 558.392L1051.64 426.063" stroke="#630716" stroke-width="0.75" stroke-miterlimit="10"/>
<path d="M949.846 163.059L1026.69 152.621L1048.14 229.712L951.665 345.617" stroke="#630716" stroke-width="0.75" stroke-miterlimit="10"/>
<path d="M1244.85 311.836C1244.85 333.598 1236.2 354.468 1220.8 369.856C1205.4 385.244 1184.51 393.889 1162.73 393.889C1053.78 389.556 1053.83 234.069 1162.73 229.759C1173.52 229.759 1184.2 231.882 1194.16 236.007C1204.13 240.132 1213.18 246.178 1220.81 253.8C1228.43 261.422 1234.48 270.47 1238.61 280.428C1242.73 290.386 1244.85 301.058 1244.85 311.836Z" stroke="#630716" stroke-width="0.75" stroke-miterlimit="10" stroke-dasharray="2.26 2.26"/>
<path d="M1026.62 174.288C1038.69 174.288 1048.47 164.514 1048.47 152.458C1048.47 140.402 1038.69 130.629 1026.62 130.629C1014.56 130.629 1004.78 140.402 1004.78 152.458C1004.78 164.514 1014.56 174.288 1026.62 174.288Z" stroke="#630716" stroke-width="0.75" stroke-miterlimit="10"/>
<path d="M710.52 355.751C726.267 355.751 739.034 342.995 739.034 327.259C739.034 311.523 726.267 298.766 710.52 298.766C694.772 298.766 682.006 311.523 682.006 327.259C682.006 342.995 694.772 355.751 710.52 355.751Z" stroke="#630716" stroke-width="0.75" stroke-miterlimit="10"/>
<path d="M196.404 580.432C208.997 580.432 219.206 570.23 219.206 557.647C219.206 545.063 208.997 534.862 196.404 534.862C183.811 534.862 173.602 545.063 173.602 557.647C173.602 570.23 183.811 580.432 196.404 580.432Z" stroke="#630716" stroke-width="0.75" stroke-miterlimit="10"/>
<path d="M105.173 531.6C117.766 531.6 127.975 521.399 127.975 508.815C127.975 496.232 117.766 486.03 105.173 486.03C92.5801 486.03 82.3713 496.232 82.3713 508.815C82.3713 521.399 92.5801 531.6 105.173 531.6Z" stroke="#630716" stroke-width="0.75" stroke-miterlimit="10"/>
<path d="M82.348 609.763C91.3486 609.763 98.6451 602.472 98.6451 593.478C98.6451 584.484 91.3486 577.193 82.348 577.193C73.3474 577.193 66.0509 584.484 66.0509 593.478C66.0509 602.472 73.3474 609.763 82.348 609.763Z" stroke="#630716" stroke-width="0.75" stroke-miterlimit="10"/>
<path d="M17.1597 574.747C26.1603 574.747 33.4568 567.456 33.4568 558.462C33.4568 549.468 26.1603 542.177 17.1597 542.177C8.15909 542.177 0.86264 549.468 0.86264 558.462C0.86264 567.456 8.15909 574.747 17.1597 574.747Z" stroke="#630716" stroke-width="0.75" stroke-miterlimit="10"/>
<path d="M1048.14 258.159C1063.89 258.159 1076.66 245.402 1076.66 229.666C1076.66 213.93 1063.89 201.173 1048.14 201.173C1032.39 201.173 1019.63 213.93 1019.63 229.666C1019.63 245.402 1032.39 258.159 1048.14 258.159Z" stroke="#630716" stroke-width="0.75" stroke-miterlimit="10"/>
<path d="M1163.71 338.232C1179.46 338.232 1192.23 325.475 1192.23 309.739C1192.23 294.003 1179.46 281.246 1163.71 281.246C1147.97 281.246 1135.2 294.003 1135.2 309.739C1135.2 325.475 1147.97 338.232 1163.71 338.232Z" stroke="#630716" stroke-width="0.75" stroke-miterlimit="10"/>
<path d="M1167.93 245.951C1176.93 245.951 1184.23 238.66 1184.23 229.666C1184.23 220.672 1176.93 213.381 1167.93 213.381C1158.93 213.381 1151.64 220.672 1151.64 229.666C1151.64 238.66 1158.93 245.951 1167.93 245.951Z" stroke="#630716" stroke-width="0.75" stroke-miterlimit="10"/>
<path d="M1344.68 787.639C1352.72 787.639 1359.23 781.13 1359.23 773.101C1359.23 765.072 1352.72 758.563 1344.68 758.563C1336.65 758.563 1330.13 765.072 1330.13 773.101C1330.13 781.13 1336.65 787.639 1344.68 787.639Z" stroke="#630716" stroke-width="0.75" stroke-miterlimit="10"/>
<path d="M949.846 177.596C957.881 177.596 964.395 171.087 964.395 163.059C964.395 155.03 957.881 148.521 949.846 148.521C941.812 148.521 935.298 155.03 935.298 163.059C935.298 171.087 941.812 177.596 949.846 177.596Z" stroke="#630716" stroke-width="0.75" stroke-miterlimit="10"/>
<path d="M1318.57 686.155C1330.64 686.155 1340.42 676.382 1340.42 664.326C1340.42 652.269 1330.64 642.496 1318.57 642.496C1306.51 642.496 1296.72 652.269 1296.72 664.326C1296.72 676.382 1306.51 686.155 1318.57 686.155Z" stroke="#630716" stroke-width="0.75" stroke-miterlimit="10"/>
<path d="M1432.32 637.091C1458.1 637.091 1479 616.209 1479 590.449C1479 564.69 1458.1 543.808 1432.32 543.808C1406.55 543.808 1385.65 564.69 1385.65 590.449C1385.65 616.209 1406.55 637.091 1432.32 637.091Z" stroke="#630716" stroke-width="0.75" stroke-miterlimit="10"/>
<path d="M902.401 615.075C928.179 615.075 949.077 594.193 949.077 568.433C949.077 542.674 928.179 521.792 902.401 521.792C876.622 521.792 855.724 542.674 855.724 568.433C855.724 594.193 876.622 615.075 902.401 615.075Z" stroke="#630716" stroke-width="0.75" stroke-miterlimit="10"/>
<path d="M1051.64 464.783C1073.04 464.783 1090.39 447.448 1090.39 426.063C1090.39 404.678 1073.04 387.343 1051.64 387.343C1030.24 387.343 1012.89 404.678 1012.89 426.063C1012.89 447.448 1030.24 464.783 1051.64 464.783Z" stroke="#630716" stroke-width="0.75" stroke-miterlimit="10"/>
<path d="M951.665 384.314C973.066 384.314 990.414 366.978 990.414 345.594C990.414 324.209 973.066 306.873 951.665 306.873C930.264 306.873 912.916 324.209 912.916 345.594C912.916 366.978 930.264 384.314 951.665 384.314Z" stroke="#630716" stroke-width="0.75" stroke-miterlimit="10"/>
<path d="M1129.93 597.112C1151.33 597.112 1168.68 579.777 1168.68 558.392C1168.68 537.008 1151.33 519.672 1129.93 519.672C1108.53 519.672 1091.18 537.008 1091.18 558.392C1091.18 579.777 1108.53 597.112 1129.93 597.112Z" stroke="#630716" stroke-width="0.75" stroke-miterlimit="10"/>
<path d="M1534.89 709.988C1550.63 709.988 1563.4 697.232 1563.4 681.496C1563.4 665.76 1550.63 653.003 1534.89 653.003C1519.14 653.003 1506.37 665.76 1506.37 681.496C1506.37 697.232 1519.14 709.988 1534.89 709.988Z" stroke="#630716" stroke-width="0.75" stroke-miterlimit="10"/>
<path d="M1696.01 463.828C1711.76 463.828 1724.53 451.071 1724.53 435.335C1724.53 419.599 1711.76 406.843 1696.01 406.843C1680.27 406.843 1667.5 419.599 1667.5 435.335C1667.5 451.071 1680.27 463.828 1696.01 463.828Z" stroke="#630716" stroke-width="0.75" stroke-miterlimit="10"/>
<path d="M1703.66 659.456C1711.7 659.456 1718.21 652.948 1718.21 644.919C1718.21 636.89 1711.7 630.381 1703.66 630.381C1695.63 630.381 1689.11 636.89 1689.11 644.919C1689.11 652.948 1695.63 659.456 1703.66 659.456Z" stroke="#630716" stroke-width="0.75" stroke-miterlimit="10"/>
<path d="M1803.19 419.307C1815.26 419.307 1825.04 409.533 1825.04 397.477C1825.04 385.421 1815.26 375.647 1803.19 375.647C1791.13 375.647 1781.35 385.421 1781.35 397.477C1781.35 409.533 1791.13 419.307 1803.19 419.307Z" stroke="#630716" stroke-width="0.75" stroke-miterlimit="10"/>
<path d="M1897.27 519.672C1909.33 519.672 1919.11 509.898 1919.11 497.842C1919.11 485.786 1909.33 476.013 1897.27 476.013C1885.2 476.013 1875.42 485.786 1875.42 497.842C1875.42 509.898 1885.2 519.672 1897.27 519.672Z" stroke="#630716" stroke-width="0.75" stroke-miterlimit="10"/>
<path d="M1742.2 586.396C1754.27 586.396 1764.05 576.622 1764.05 564.566C1764.05 552.51 1754.27 542.736 1742.2 542.736C1730.14 542.736 1720.36 552.51 1720.36 564.566C1720.36 576.622 1730.14 586.396 1742.2 586.396Z" stroke="#630716" stroke-width="0.75" stroke-miterlimit="10"/>
<path d="M180.923 648.041C189.924 648.041 197.22 640.75 197.22 631.756C197.22 622.762 189.924 615.471 180.923 615.471C171.922 615.471 164.626 622.762 164.626 631.756C164.626 640.75 171.922 648.041 180.923 648.041Z" stroke="#630716" stroke-width="0.75" stroke-miterlimit="10"/>
<path d="M1050.19 664.605L902.377 568.433" stroke="#630716" stroke-width="0.75" stroke-miterlimit="10"/>
<path d="M1050.17 664.605L1129.93 558.392" stroke="#630716" stroke-width="0.75" stroke-miterlimit="10"/>
<path d="M829.379 887.188C837.414 887.188 843.927 880.68 843.927 872.651C843.927 864.622 837.414 858.113 829.379 858.113C821.344 858.113 814.83 864.622 814.83 872.651C814.83 880.68 821.344 887.188 829.379 887.188Z" stroke="#82C341" stroke-width="0.75" stroke-miterlimit="10"/>
<path d="M864.887 432.633C876.952 432.633 886.733 422.859 886.733 410.803C886.733 398.747 876.952 388.974 864.887 388.974C852.822 388.974 843.041 398.747 843.041 410.803C843.041 422.859 852.822 432.633 864.887 432.633Z" stroke="#630716" stroke-width="0.75" stroke-miterlimit="10"/>
<path d="M1477.88 226.451L1378.35 311.347L1277.28 258.578" stroke="#DE2531" stroke-width="0.75" stroke-miterlimit="10"/>
<path d="M304.772 305.266L326.781 223.049" stroke="#DE2531" stroke-width="0.75" stroke-miterlimit="10"/>
<path d="M413.955 339.467L304.772 305.266" stroke="#DE2531" stroke-width="0.75" stroke-miterlimit="10"/>
<path d="M730.081 758.773L590.751 586.163" stroke="#DE2531" stroke-width="0.75" stroke-miterlimit="10"/>
<path d="M304.772 305.266L447.365 665.118" stroke="#DE2531" stroke-width="0.75" stroke-miterlimit="10"/>
<path d="M240.446 217.388L304.772 305.266" stroke="#DE2531" stroke-width="0.75" stroke-miterlimit="10"/>
<path d="M763.001 615.75L730.104 758.75" stroke="#DE2531" stroke-width="0.75" stroke-miterlimit="10"/>
<path d="M902.377 568.433L763.001 615.75" stroke="#DE2531" stroke-width="0.75" stroke-miterlimit="10"/>
<path d="M763.001 615.75L864.887 410.803" stroke="#DE2531" stroke-width="0.75" stroke-miterlimit="10"/>
<path d="M590.751 586.163L763.001 615.75" stroke="#DE2531" stroke-width="0.75" stroke-miterlimit="10"/>
<path d="M1296.16 362.857L1228.02 469.885" stroke="#DE2531" stroke-width="0.75" stroke-miterlimit="10"/>
<path d="M1378.35 311.347L1296.16 362.857" stroke="#DE2531" stroke-width="0.75" stroke-miterlimit="10"/>
<path d="M1359.53 459.332L1378.35 311.347" stroke="#DE2531" stroke-width="0.75" stroke-miterlimit="10"/>
<path d="M1479 453.111L1296.16 362.857" stroke="#DE2531" stroke-width="0.75" stroke-miterlimit="10"/>
<path d="M304.772 328.051C317.365 328.051 327.573 317.85 327.573 305.266C327.573 292.682 317.365 282.481 304.772 282.481C292.178 282.481 281.97 292.682 281.97 305.266C281.97 317.85 292.178 328.051 304.772 328.051Z" stroke="#DE2531" stroke-width="0.75" stroke-miterlimit="10"/>
<path d="M730.081 805.391C755.859 805.391 776.757 784.509 776.757 758.75C776.757 732.991 755.859 712.109 730.081 712.109C704.302 712.109 683.404 732.991 683.404 758.75C683.404 784.509 704.302 805.391 730.081 805.391Z" stroke="#DE2531" stroke-width="0.75" stroke-miterlimit="10"/>
<path d="M326.781 239.334C335.781 239.334 343.078 232.043 343.078 223.049C343.078 214.055 335.781 206.764 326.781 206.764C317.78 206.764 310.484 214.055 310.484 223.049C310.484 232.043 317.78 239.334 326.781 239.334Z" stroke="#DE2531" stroke-width="0.75" stroke-miterlimit="10"/>
<path d="M240.423 233.626C249.423 233.626 256.72 226.335 256.72 217.342C256.72 208.348 249.423 201.057 240.423 201.057C231.422 201.057 224.125 208.348 224.125 217.342C224.125 226.335 231.422 233.626 240.423 233.626Z" stroke="#DE2531" stroke-width="0.75" stroke-miterlimit="10"/>
<path d="M763.001 644.22C778.749 644.22 791.515 631.463 791.515 615.727C791.515 599.991 778.749 587.234 763.001 587.234C747.253 587.234 734.487 599.991 734.487 615.727C734.487 631.463 747.253 644.22 763.001 644.22Z" stroke="#DE2531" stroke-width="0.75" stroke-miterlimit="10"/>
<path d="M1296.16 391.35C1311.91 391.35 1324.68 378.593 1324.68 362.857C1324.68 347.121 1311.91 334.364 1296.16 334.364C1280.42 334.364 1267.65 347.121 1267.65 362.857C1267.65 378.593 1280.42 391.35 1296.16 391.35Z" stroke="#DE2531" stroke-width="0.75" stroke-miterlimit="10"/>
<path d="M1359.53 473.869C1367.57 473.869 1374.08 467.361 1374.08 459.332C1374.08 451.303 1367.57 444.794 1359.53 444.794C1351.5 444.794 1344.99 451.303 1344.99 459.332C1344.99 467.361 1351.5 473.869 1359.53 473.869Z" stroke="#DE2531" stroke-width="0.75" stroke-miterlimit="10"/>
<path d="M1277.28 273.115C1285.31 273.115 1291.83 266.607 1291.83 258.578C1291.83 250.549 1285.31 244.04 1277.28 244.04C1269.25 244.04 1262.73 250.549 1262.73 258.578C1262.73 266.607 1269.25 273.115 1277.28 273.115Z" stroke="#DE2531" stroke-width="0.75" stroke-miterlimit="10"/>
<path d="M1477.88 240.988C1485.92 240.988 1492.43 234.48 1492.43 226.451C1492.43 218.422 1485.92 211.913 1477.88 211.913C1469.85 211.913 1463.33 218.422 1463.33 226.451C1463.33 234.48 1469.85 240.988 1477.88 240.988Z" stroke="#DE2531" stroke-width="0.75" stroke-miterlimit="10"/>
<path d="M1378.35 333.176C1390.41 333.176 1400.2 323.403 1400.2 311.347C1400.2 299.29 1390.41 289.517 1378.35 289.517C1366.28 289.517 1356.5 299.29 1356.5 311.347C1356.5 323.403 1366.28 333.176 1378.35 333.176Z" stroke="#DE2531" stroke-width="0.75" stroke-miterlimit="10"/>
<path d="M590.751 624.417C611.894 624.417 629.034 607.29 629.034 586.163C629.034 565.035 611.894 547.908 590.751 547.908C569.608 547.908 552.468 565.035 552.468 586.163C552.468 607.29 569.608 624.417 590.751 624.417Z" stroke="#DE2531" stroke-width="0.75" stroke-miterlimit="10"/>
<path d="M448.181 522.887C473.96 522.887 494.857 502.005 494.857 476.246C494.857 450.486 473.96 429.604 448.181 429.604C422.402 429.604 401.505 450.486 401.505 476.246C401.505 502.005 422.402 522.887 448.181 522.887Z" stroke="#82C341" stroke-width="0.75" stroke-miterlimit="10"/>
<path d="M304.772 578.824C325.915 578.824 343.054 561.697 343.054 540.57C343.054 519.442 325.915 502.315 304.772 502.315C283.628 502.315 266.489 519.442 266.489 540.57C266.489 561.697 283.628 578.824 304.772 578.824Z" stroke="#82C341" stroke-width="0.75" stroke-miterlimit="10"/>
<path d="M413.955 367.959C429.703 367.959 442.469 355.203 442.469 339.467C442.469 323.73 429.703 310.974 413.955 310.974C398.207 310.974 385.441 323.73 385.441 339.467C385.441 355.203 398.207 367.959 413.955 367.959Z" stroke="#82C341" stroke-width="0.75" stroke-miterlimit="10"/>
<path d="M602.968 262.935C611.969 262.935 619.265 255.644 619.265 246.65C619.265 237.656 611.969 230.365 602.968 230.365C593.968 230.365 586.671 237.656 586.671 246.65C586.671 255.644 593.968 262.935 602.968 262.935Z" stroke="#82C341" stroke-width="0.75" stroke-miterlimit="10"/>
<path d="M1000.07 876.052C1015.81 876.052 1028.58 863.296 1028.58 847.56C1028.58 831.824 1015.81 819.067 1000.07 819.067C984.319 819.067 971.553 831.824 971.553 847.56C971.553 863.296 984.319 876.052 1000.07 876.052Z" stroke="#82C341" stroke-width="0.75" stroke-miterlimit="10"/>
<path d="M880.042 794.721C892.107 794.721 901.888 784.948 901.888 772.891C901.888 760.835 892.107 751.062 880.042 751.062C867.977 751.062 858.196 760.835 858.196 772.891C858.196 784.948 867.977 794.721 880.042 794.721Z" stroke="#82C341" stroke-width="0.75" stroke-miterlimit="10"/>
<path d="M700.751 519.625C726.529 519.625 747.427 498.743 747.427 472.984C747.427 447.225 726.529 426.343 700.751 426.343C674.972 426.343 654.074 447.225 654.074 472.984C654.074 498.743 674.972 519.625 700.751 519.625Z" stroke="#82C341" stroke-width="0.75" stroke-miterlimit="10"/>
<path d="M212.701 486.007C233.844 486.007 250.984 468.88 250.984 447.753C250.984 426.626 233.844 409.499 212.701 409.499C191.558 409.499 174.418 426.626 174.418 447.753C174.418 468.88 191.558 486.007 212.701 486.007Z" stroke="#82C341" stroke-width="0.75" stroke-miterlimit="10"/>
<path d="M447.365 703.372C468.508 703.372 485.648 686.245 485.648 665.118C485.648 643.99 468.508 626.863 447.365 626.863C426.222 626.863 409.082 643.99 409.082 665.118C409.082 686.245 426.222 703.372 447.365 703.372Z" stroke="#82C341" stroke-width="0.75" stroke-miterlimit="10"/>
<path d="M553.284 366.328C565.878 366.328 576.086 356.127 576.086 343.544C576.086 330.96 565.878 320.759 553.284 320.759C540.691 320.759 530.482 330.96 530.482 343.544C530.482 356.127 540.691 366.328 553.284 366.328Z" stroke="#82C341" stroke-width="0.75" stroke-miterlimit="10"/>
<path d="M1228.02 516.527C1253.79 516.527 1274.69 495.645 1274.69 469.885C1274.69 444.126 1253.79 423.244 1228.02 423.244C1202.24 423.244 1181.34 444.126 1181.34 469.885C1181.34 495.645 1202.24 516.527 1228.02 516.527Z" stroke="#82C341" stroke-width="0.75" stroke-miterlimit="10"/>
<path d="M1479 499.753C1504.78 499.753 1525.68 478.871 1525.68 453.111C1525.68 427.352 1504.78 406.47 1479 406.47C1453.22 406.47 1432.32 427.352 1432.32 453.111C1432.32 478.871 1453.22 499.753 1479 499.753Z" stroke="#82C341" stroke-width="0.75" stroke-miterlimit="10"/>
<path d="M1050.19 711.247C1075.97 711.247 1096.87 690.364 1096.87 664.605C1096.87 638.846 1075.97 617.964 1050.19 617.964C1024.41 617.964 1003.52 638.846 1003.52 664.605C1003.52 690.364 1024.41 711.247 1050.19 711.247Z" stroke="#82C341" stroke-width="0.75" stroke-miterlimit="10"/>
<path d="M1187.94 822.515C1209.34 822.515 1226.69 805.179 1226.69 783.795C1226.69 762.41 1209.34 745.074 1187.94 745.074C1166.54 745.074 1149.19 762.41 1149.19 783.795C1149.19 805.179 1166.54 822.515 1187.94 822.515Z" stroke="#82C341" stroke-width="0.75" stroke-miterlimit="10"/>
<path d="M1275.9 901.33C1291.65 901.33 1304.42 888.573 1304.42 872.837C1304.42 857.101 1291.65 844.345 1275.9 844.345C1260.16 844.345 1247.39 857.101 1247.39 872.837C1247.39 888.573 1260.16 901.33 1275.9 901.33Z" stroke="#82C341" stroke-width="0.75" stroke-miterlimit="10"/>
<path d="M1540.39 292.546C1552.45 292.546 1562.23 282.772 1562.23 270.716C1562.23 258.66 1552.45 248.886 1540.39 248.886C1528.32 248.886 1518.54 258.66 1518.54 270.716C1518.54 282.772 1528.32 292.546 1540.39 292.546Z" stroke="#82C341" stroke-width="0.75" stroke-miterlimit="10"/>
<path d="M1603.22 377.861C1618.97 377.861 1631.74 365.104 1631.74 349.368C1631.74 333.632 1618.97 320.875 1603.22 320.875C1587.47 320.875 1574.71 333.632 1574.71 349.368C1574.71 365.104 1587.47 377.861 1603.22 377.861Z" stroke="#82C341" stroke-width="0.75" stroke-miterlimit="10"/>
<path d="M1656.61 271.019C1668.68 271.019 1678.46 261.245 1678.46 249.189C1678.46 237.133 1668.68 227.359 1656.61 227.359C1644.55 227.359 1634.77 237.133 1634.77 249.189C1634.77 261.245 1644.55 271.019 1656.61 271.019Z" stroke="#82C341" stroke-width="0.75" stroke-miterlimit="10"/>
<path d="M1641.71 596.786C1663.11 596.786 1680.46 579.451 1680.46 558.066C1680.46 536.681 1663.11 519.346 1641.71 519.346C1620.31 519.346 1602.96 536.681 1602.96 558.066C1602.96 579.451 1620.31 596.786 1641.71 596.786Z" stroke="#82C341" stroke-width="0.75" stroke-miterlimit="10"/>
<path d="M1624.76 190.34C1632.8 190.34 1639.31 183.831 1639.31 175.802C1639.31 167.773 1632.8 161.265 1624.76 161.265C1616.73 161.265 1610.22 167.773 1610.22 175.802C1610.22 183.831 1616.73 190.34 1624.76 190.34Z" stroke="#82C341" stroke-width="0.75" stroke-miterlimit="10"/>
<path d="M447.365 665.118L448.204 476.246" stroke="#82C341" stroke-width="0.75" stroke-miterlimit="10"/>
<path d="M448.274 477.271L304.772 540.57L212.701 447.753L413.955 339.467L448.204 476.246" stroke="#82C341" stroke-width="0.75" stroke-miterlimit="10"/>
<path d="M196.427 557.67L304.772 540.57L447.342 665.118" stroke="#82C341" stroke-width="0.75" stroke-miterlimit="10"/>
<path d="M602.968 246.65L553.284 343.544" stroke="#82C341" stroke-width="0.75" stroke-miterlimit="10"/>
<path d="M700.751 473.031L730.081 758.773" stroke="#82C341" stroke-width="0.75" stroke-miterlimit="10"/>
<path d="M553.284 343.544L590.751 586.139L700.751 473.031" stroke="#82C341" stroke-width="0.75" stroke-miterlimit="10"/>
<path d="M447.388 665.141L710.543 327.282" stroke="#82C341" stroke-width="0.75" stroke-miterlimit="10"/>
<path d="M448.204 476.246L590.751 586.163L447.388 665.141" stroke="#82C341" stroke-width="0.75" stroke-miterlimit="10"/>
<path d="M829.379 871.672L880.042 771.89L1000.07 846.558L1050.19 663.603L1187.94 782.816L1000.07 846.581" stroke="#82C341" stroke-width="0.75" stroke-miterlimit="10"/>
<path d="M1275.9 872.861L1187.94 783.795" stroke="#82C341" stroke-width="0.75" stroke-miterlimit="10"/>
<path d="M1228.02 469.885L1051.64 426.063" stroke="#82C341" stroke-width="0.75" stroke-miterlimit="10"/>
<path d="M1228.02 469.885L1129.93 558.392" stroke="#82C341" stroke-width="0.75" stroke-miterlimit="10"/>
<path d="M1540.39 270.716L1603.22 349.368L1656.61 249.189L1624.76 175.802" stroke="#82C341" stroke-width="0.75" stroke-miterlimit="10"/>
<path d="M1696.04 435.335L1641.67 558.066" stroke="#82C341" stroke-width="0.75" stroke-miterlimit="10"/>
<path d="M1479.02 453.135L1603.22 349.368L1641.67 558.066L1479.02 453.135ZM1479.02 453.135L1696.01 435.335" stroke="#82C341" stroke-width="0.75" stroke-miterlimit="10"/>
<path d="M563.123 476.246C563.123 506.707 551.013 535.921 529.457 557.461C507.902 579.001 478.666 591.102 448.181 591.102C295.702 585.068 295.749 367.447 448.181 361.389C478.666 361.389 507.902 373.49 529.457 395.03C551.013 416.57 563.123 445.784 563.123 476.246Z" stroke="#F37021" stroke-width="0.75" stroke-miterlimit="10" stroke-dasharray="2.18 2.18"/>
<path d="M529.503 665.141C529.503 675.918 527.378 686.59 523.25 696.547C519.122 706.503 513.072 715.55 505.444 723.17C497.817 730.789 488.762 736.833 478.796 740.955C468.831 745.077 458.15 747.197 447.365 747.194C338.438 742.861 338.461 587.374 447.365 583.064C469.149 583.064 490.042 591.711 505.445 607.104C520.849 622.496 529.503 643.373 529.503 665.141Z" stroke="#F37021" stroke-width="0.75" stroke-miterlimit="10" stroke-dasharray="2.26 2.26"/>
<path d="M778.482 327.259C778.482 345.264 771.325 362.532 758.583 375.263C745.842 387.995 728.562 395.147 710.543 395.147C620.408 391.583 620.431 262.935 710.543 259.37C719.465 259.37 728.299 261.126 736.542 264.538C744.785 267.949 752.275 272.95 758.583 279.254C764.892 285.558 769.897 293.042 773.311 301.279C776.725 309.515 778.482 318.343 778.482 327.259Z" stroke="#F37021" stroke-width="0.75" stroke-miterlimit="10" stroke-dasharray="2.23 2.23"/>
<path d="M1017.9 566.57C1017.9 597.031 1005.79 626.245 984.237 647.785C962.681 669.325 933.445 681.426 902.96 681.426C750.481 675.392 750.528 457.771 902.96 451.713C933.445 451.713 962.681 463.814 984.237 485.354C1005.79 506.894 1017.9 536.108 1017.9 566.57Z" stroke="#F37021" stroke-width="0.75" stroke-miterlimit="10" stroke-dasharray="2.18 2.18"/>
<path d="M1549.99 588.772C1549.99 619.234 1537.88 648.448 1516.33 669.988C1494.77 691.527 1465.54 703.628 1435.05 703.628C1282.57 697.571 1282.62 479.973 1435.05 473.916C1465.54 473.916 1494.77 486.017 1516.33 507.556C1537.88 529.096 1549.99 558.31 1549.99 588.772Z" stroke="#F37021" stroke-width="0.75" stroke-miterlimit="10" stroke-dasharray="2.18 2.18"/>
<path d="M1617.61 682.358C1617.61 693.136 1615.48 703.809 1611.35 713.767C1607.23 723.725 1601.18 732.773 1593.55 740.395C1585.92 748.016 1576.87 754.062 1566.9 758.187C1556.94 762.311 1546.25 764.434 1535.47 764.434C1426.54 760.101 1426.56 604.614 1535.47 600.304C1546.25 600.301 1556.93 602.421 1566.9 606.544C1576.86 610.666 1585.92 616.709 1593.55 624.329C1601.17 631.949 1607.23 640.995 1611.35 650.952C1615.48 660.909 1617.61 671.58 1617.61 682.358Z" stroke="#F37021" stroke-width="0.75" stroke-miterlimit="10" stroke-dasharray="2.26 2.26"/>
<path d="M1671.02 351.395C1671.02 369.4 1663.86 386.668 1651.12 399.399C1638.38 412.131 1621.1 419.283 1603.08 419.283C1512.95 415.696 1512.97 287.071 1603.08 283.506C1621.1 283.506 1638.38 290.659 1651.12 303.39C1663.86 316.122 1671.02 333.39 1671.02 351.395Z" stroke="#F37021" stroke-width="0.75" stroke-miterlimit="10" stroke-dasharray="2.23 2.23"/>
<path d="M1127.65 964.862L1182.6 965.91L1233.33 927.912L1331.86 845.02L1297.59 768.744L1223.82 705.166L1175.72 641.215L1141.91 647.551" stroke="#F37021" stroke-width="0.75" stroke-miterlimit="10"/>
<path d="M1145.6 856.087L1233.28 927.866" stroke="#F37021" stroke-width="0.75" stroke-miterlimit="10"/>
<path d="M1155.11 916.287L1182.57 965.911" stroke="#F37021" stroke-width="0.75" stroke-miterlimit="10"/>
<path d="M1372.26 936.859L1315.28 917.988L1331.86 845.02" stroke="#F37021" stroke-width="0.75" stroke-miterlimit="10"/>
<path d="M865.377 221.372L882.303 308.551" stroke="#F37021" stroke-width="0.75" stroke-miterlimit="10"/>
<path d="M779.741 171.539L735.886 196.467" stroke="#F37021" stroke-width="0.75" stroke-miterlimit="10"/>
<path d="M702.103 44.731L708.328 0.116486" stroke="#F37021" stroke-width="0.75" stroke-miterlimit="10"/>
<path d="M654.634 105.607L702.103 44.8475" stroke="#F37021" stroke-width="0.75" stroke-miterlimit="10"/>
<path d="M654.634 105.747L735.886 196.467" stroke="#F37021" stroke-width="0.75" stroke-miterlimit="10"/>
<path d="M757.149 316.798L735.886 196.467" stroke="#F37021" stroke-width="0.75" stroke-miterlimit="10"/>
<path d="M882.327 308.551L757.149 316.798" stroke="#F37021" stroke-width="0.75" stroke-miterlimit="10"/>
<path d="M779.741 171.539L865.097 221.372" stroke="#F37021" stroke-width="0.75" stroke-miterlimit="10"/>
<path d="M891.886 166.18L865.097 221.372" stroke="#F37021" stroke-width="0.75" stroke-miterlimit="10"/>
<path d="M875.985 116.79L891.886 166.18" stroke="#F37021" stroke-width="0.75" stroke-miterlimit="10"/>
<path d="M923.641 203.619L891.862 166.18" stroke="#F37021" stroke-width="0.75" stroke-miterlimit="10"/>
<path d="M728.192 394.495L757.149 316.798" stroke="#F37021" stroke-width="0.75" stroke-miterlimit="10"/>
<path d="M764.074 53.3045L702.173 44.7776" stroke="#F37021" stroke-width="0.75" stroke-miterlimit="10"/>
<path d="M1164.62 688.205L1223.82 705.189" stroke="#F37021" stroke-width="0.75" stroke-miterlimit="10"/>
<path d="M1026.62 168.51C1035.49 168.51 1042.69 161.323 1042.69 152.458C1042.69 143.593 1035.49 136.406 1026.62 136.406C1017.75 136.406 1010.56 143.593 1010.56 152.458C1010.56 161.323 1017.75 168.51 1026.62 168.51Z" fill="#630716"/>
<path d="M864.887 426.855C873.759 426.855 880.951 419.668 880.951 410.803C880.951 401.938 873.759 394.751 864.887 394.751C856.015 394.751 848.823 401.938 848.823 410.803C848.823 419.668 856.015 426.855 864.887 426.855Z" fill="#630716"/>
<path d="M710.52 348.203C722.096 348.203 731.48 338.826 731.48 327.259C731.48 315.691 722.096 306.314 710.52 306.314C698.944 306.314 689.56 315.691 689.56 327.259C689.56 338.826 698.944 348.203 710.52 348.203Z" fill="#630716"/>
<path d="M17.1597 570.437C23.7782 570.437 29.1435 565.076 29.1435 558.462C29.1435 551.849 23.7782 546.487 17.1597 546.487C10.5412 546.487 5.17589 551.849 5.17589 558.462C5.17589 565.076 10.5412 570.437 17.1597 570.437Z" fill="#630716"/>
<path d="M1048.14 250.61C1059.72 250.61 1069.1 241.233 1069.1 229.666C1069.1 218.099 1059.72 208.721 1048.14 208.721C1036.57 208.721 1027.18 218.099 1027.18 229.666C1027.18 241.233 1036.57 250.61 1048.14 250.61Z" fill="#630716"/>
<path d="M1163.71 330.683C1175.29 330.683 1184.67 321.306 1184.67 309.739C1184.67 298.172 1175.29 288.795 1163.71 288.795C1152.14 288.795 1142.75 298.172 1142.75 309.739C1142.75 321.306 1152.14 330.683 1163.71 330.683Z" fill="#630716"/>
<path d="M1167.93 241.641C1174.55 241.641 1179.92 236.279 1179.92 229.666C1179.92 223.052 1174.55 217.691 1167.93 217.691C1161.31 217.691 1155.95 223.052 1155.95 229.666C1155.95 236.279 1161.31 241.641 1167.93 241.641Z" fill="#630716"/>
<path d="M1703.66 655.612C1709.57 655.612 1714.36 650.825 1714.36 644.919C1714.36 639.013 1709.57 634.225 1703.66 634.225C1697.75 634.225 1692.96 639.013 1692.96 644.919C1692.96 650.825 1697.75 655.612 1703.66 655.612Z" fill="#630716"/>
<path d="M949.846 173.752C955.757 173.752 960.548 168.964 960.548 163.059C960.548 157.153 955.757 152.365 949.846 152.365C943.936 152.365 939.145 157.153 939.145 163.059C939.145 168.964 943.936 173.752 949.846 173.752Z" fill="#630716"/>
<path d="M1318.57 680.378C1327.44 680.378 1334.63 673.191 1334.63 664.326C1334.63 655.46 1327.44 648.274 1318.57 648.274C1309.7 648.274 1302.51 655.46 1302.51 664.326C1302.51 673.191 1309.7 680.378 1318.57 680.378Z" fill="#630716"/>
<path d="M1803.19 413.529C1812.06 413.529 1819.26 406.342 1819.26 397.477C1819.26 388.612 1812.06 381.425 1803.19 381.425C1794.32 381.425 1787.13 388.612 1787.13 397.477C1787.13 406.342 1794.32 413.529 1803.19 413.529Z" fill="#630716"/>
<path d="M1897.27 513.894C1906.14 513.894 1913.33 506.707 1913.33 497.842C1913.33 488.977 1906.14 481.79 1897.27 481.79C1888.4 481.79 1881.2 488.977 1881.2 497.842C1881.2 506.707 1888.4 513.894 1897.27 513.894Z" fill="#630716"/>
<path d="M1742.2 580.618C1751.07 580.618 1758.26 573.431 1758.26 564.566C1758.26 555.701 1751.07 548.514 1742.2 548.514C1733.33 548.514 1726.14 555.701 1726.14 564.566C1726.14 573.431 1733.33 580.618 1742.2 580.618Z" fill="#630716"/>
<path d="M1432.32 624.743C1451.28 624.743 1466.64 609.389 1466.64 590.449C1466.64 571.509 1451.28 556.156 1432.32 556.156C1413.37 556.156 1398 571.509 1398 590.449C1398 609.389 1413.37 624.743 1432.32 624.743Z" fill="#630716"/>
<path d="M902.401 602.727C921.355 602.727 936.72 587.373 936.72 568.433C936.72 549.494 921.355 534.14 902.401 534.14C883.447 534.14 868.081 549.494 868.081 568.433C868.081 587.373 883.447 602.727 902.401 602.727Z" fill="#630716"/>
<path d="M1051.64 454.532C1067.37 454.532 1080.13 441.786 1080.13 426.063C1080.13 410.34 1067.37 397.594 1051.64 397.594C1035.9 397.594 1023.15 410.34 1023.15 426.063C1023.15 441.786 1035.9 454.532 1051.64 454.532Z" fill="#630716"/>
<path d="M951.665 374.063C967.4 374.063 980.156 361.317 980.156 345.594C980.156 329.87 967.4 317.124 951.665 317.124C935.93 317.124 923.174 329.87 923.174 345.594C923.174 361.317 935.93 374.063 951.665 374.063Z" fill="#630716"/>
<path d="M1129.93 586.862C1145.67 586.862 1158.42 574.115 1158.42 558.392C1158.42 542.669 1145.67 529.923 1129.93 529.923C1114.2 529.923 1101.44 542.669 1101.44 558.392C1101.44 574.115 1114.2 586.862 1129.93 586.862Z" fill="#630716"/>
<path d="M1344.68 783.795C1350.59 783.795 1355.38 779.007 1355.38 773.101C1355.38 767.195 1350.59 762.408 1344.68 762.408C1338.77 762.408 1333.98 767.195 1333.98 773.101C1333.98 779.007 1338.77 783.795 1344.68 783.795Z" fill="#630716"/>
<path d="M196.404 574.421C205.675 574.421 213.191 566.911 213.191 557.647C213.191 548.383 205.675 540.873 196.404 540.873C187.133 540.873 179.617 548.383 179.617 557.647C179.617 566.911 187.133 574.421 196.404 574.421Z" fill="#630716"/>
<path d="M105.173 525.589C114.444 525.589 121.96 518.079 121.96 508.815C121.96 499.551 114.444 492.041 105.173 492.041C95.9022 492.041 88.3865 499.551 88.3865 508.815C88.3865 518.079 95.9022 525.589 105.173 525.589Z" fill="#630716"/>
<path d="M180.923 643.731C187.542 643.731 192.907 638.369 192.907 631.756C192.907 625.142 187.542 619.781 180.923 619.781C174.305 619.781 168.939 625.142 168.939 631.756C168.939 638.369 174.305 643.731 180.923 643.731Z" fill="#630716"/>
<path d="M82.348 605.453C88.9665 605.453 94.3318 600.092 94.3318 593.478C94.3318 586.865 88.9665 581.503 82.348 581.503C75.7295 581.503 70.3642 586.865 70.3642 593.478C70.3642 600.092 75.7295 605.453 82.348 605.453Z" fill="#630716"/>
<path d="M1534.89 702.44C1546.46 702.44 1555.85 693.063 1555.85 681.496C1555.85 669.928 1546.46 660.551 1534.89 660.551C1523.31 660.551 1513.93 669.928 1513.93 681.496C1513.93 693.063 1523.31 702.44 1534.89 702.44Z" fill="#630716"/>
<path d="M1696.01 456.28C1707.59 456.28 1716.97 446.903 1716.97 435.335C1716.97 423.768 1707.59 414.391 1696.01 414.391C1684.44 414.391 1675.05 423.768 1675.05 435.335C1675.05 446.903 1684.44 456.28 1696.01 456.28Z" fill="#630716"/>
<path d="M1477.88 237.144C1483.79 237.144 1488.58 232.357 1488.58 226.451C1488.58 220.545 1483.79 215.757 1477.88 215.757C1471.97 215.757 1467.18 220.545 1467.18 226.451C1467.18 232.357 1471.97 237.144 1477.88 237.144Z" fill="#DE2531"/>
<path d="M304.772 322.04C314.043 322.04 321.558 314.53 321.558 305.266C321.558 296.002 314.043 288.492 304.772 288.492C295.501 288.492 287.985 296.002 287.985 305.266C287.985 314.53 295.501 322.04 304.772 322.04Z" fill="#DE2531"/>
<path d="M730.081 793.044C749.035 793.044 764.4 777.69 764.4 758.75C764.4 739.81 749.035 724.456 730.081 724.456C711.127 724.456 695.761 739.81 695.761 758.75C695.761 777.69 711.127 793.044 730.081 793.044Z" fill="#DE2531"/>
<path d="M326.781 235.024C333.399 235.024 338.765 229.663 338.765 223.049C338.765 216.436 333.399 211.074 326.781 211.074C320.162 211.074 314.797 216.436 314.797 223.049C314.797 229.663 320.162 235.024 326.781 235.024Z" fill="#DE2531"/>
<path d="M240.423 229.316C247.041 229.316 252.406 223.955 252.406 217.341C252.406 210.728 247.041 205.367 240.423 205.367C233.804 205.367 228.439 210.728 228.439 217.341C228.439 223.955 233.804 229.316 240.423 229.316Z" fill="#DE2531"/>
<path d="M763.001 636.672C774.577 636.672 783.961 627.294 783.961 615.727C783.961 604.16 774.577 594.783 763.001 594.783C751.425 594.783 742.041 604.16 742.041 615.727C742.041 627.294 751.425 636.672 763.001 636.672Z" fill="#DE2531"/>
<path d="M1296.16 383.801C1307.74 383.801 1317.12 374.424 1317.12 362.857C1317.12 351.29 1307.74 341.913 1296.16 341.913C1284.59 341.913 1275.2 351.29 1275.2 362.857C1275.2 374.424 1284.59 383.801 1296.16 383.801Z" fill="#DE2531"/>
<path d="M1359.53 470.025C1365.44 470.025 1370.24 465.238 1370.24 459.332C1370.24 453.426 1365.44 448.638 1359.53 448.638C1353.62 448.638 1348.83 453.426 1348.83 459.332C1348.83 465.238 1353.62 470.025 1359.53 470.025Z" fill="#DE2531"/>
<path d="M1277.28 269.271C1283.19 269.271 1287.98 264.484 1287.98 258.578C1287.98 252.672 1283.19 247.884 1277.28 247.884C1271.37 247.884 1266.58 252.672 1266.58 258.578C1266.58 264.484 1271.37 269.271 1277.28 269.271Z" fill="#DE2531"/>
<path d="M1378.35 327.398C1387.22 327.398 1394.41 320.212 1394.41 311.347C1394.41 302.481 1387.22 295.295 1378.35 295.295C1369.48 295.295 1362.29 302.481 1362.29 311.347C1362.29 320.212 1369.48 327.398 1378.35 327.398Z" fill="#DE2531"/>
<path d="M590.751 614.306C606.306 614.306 618.916 601.706 618.916 586.163C618.916 570.62 606.306 558.019 590.751 558.019C575.197 558.019 562.587 570.62 562.587 586.163C562.587 601.706 575.197 614.306 590.751 614.306Z" fill="#DE2531"/>
<path d="M1624.76 186.496C1630.67 186.496 1635.47 181.708 1635.47 175.802C1635.47 169.896 1630.67 165.109 1624.76 165.109C1618.85 165.109 1614.06 169.896 1614.06 175.802C1614.06 181.708 1618.85 186.496 1624.76 186.496Z" fill="#82C341"/>
<path d="M700.751 507.278C719.705 507.278 735.07 491.924 735.07 472.984C735.07 454.044 719.705 438.69 700.751 438.69C681.797 438.69 666.431 454.044 666.431 472.984C666.431 491.924 681.797 507.278 700.751 507.278Z" fill="#82C341"/>
<path d="M212.701 475.896C228.256 475.896 240.866 463.296 240.866 447.753C240.866 432.21 228.256 419.61 212.701 419.61C197.147 419.61 184.537 432.21 184.537 447.753C184.537 463.296 197.147 475.896 212.701 475.896Z" fill="#82C341"/>
<path d="M447.365 693.261C462.92 693.261 475.529 680.661 475.529 665.118C475.529 649.575 462.92 636.974 447.365 636.974C431.81 636.974 419.201 649.575 419.201 665.118C419.201 680.661 431.81 693.261 447.365 693.261Z" fill="#82C341"/>
<path d="M1228.02 504.179C1246.97 504.179 1262.34 488.825 1262.34 469.885C1262.34 450.945 1246.97 435.592 1228.02 435.592C1209.06 435.592 1193.7 450.945 1193.7 469.885C1193.7 488.825 1209.06 504.179 1228.02 504.179Z" fill="#82C341"/>
<path d="M1050.19 698.899C1069.15 698.899 1084.51 683.545 1084.51 664.605C1084.51 645.665 1069.15 630.311 1050.19 630.311C1031.24 630.311 1015.87 645.665 1015.87 664.605C1015.87 683.545 1031.24 698.899 1050.19 698.899Z" fill="#82C341"/>
<path d="M1641.71 586.536C1657.45 586.536 1670.2 573.789 1670.2 558.066C1670.2 542.343 1657.45 529.597 1641.71 529.597C1625.98 529.597 1613.22 542.343 1613.22 558.066C1613.22 573.789 1625.98 586.536 1641.71 586.536Z" fill="#82C341"/>
<path d="M553.284 360.318C562.555 360.318 570.071 352.808 570.071 343.544C570.071 334.279 562.555 326.769 553.284 326.769C544.013 326.769 536.498 334.279 536.498 343.544C536.498 352.808 544.013 360.318 553.284 360.318Z" fill="#82C341"/>
<path d="M602.968 258.625C609.587 258.625 614.952 253.263 614.952 246.65C614.952 240.036 609.587 234.675 602.968 234.675C596.35 234.675 590.984 240.036 590.984 246.65C590.984 253.263 596.35 258.625 602.968 258.625Z" fill="#82C341"/>
<path d="M1603.22 370.312C1614.8 370.312 1624.18 360.935 1624.18 349.368C1624.18 337.801 1614.8 328.424 1603.22 328.424C1591.65 328.424 1582.26 337.801 1582.26 349.368C1582.26 360.935 1591.65 370.312 1603.22 370.312Z" fill="#82C341"/>
<path d="M1656.61 265.241C1665.48 265.241 1672.68 258.054 1672.68 249.189C1672.68 240.324 1665.48 233.137 1656.61 233.137C1647.74 233.137 1640.55 240.324 1640.55 249.189C1640.55 258.054 1647.74 265.241 1656.61 265.241Z" fill="#82C341"/>
<path d="M1479 487.405C1497.95 487.405 1513.32 472.051 1513.32 453.111C1513.32 434.171 1497.95 418.817 1479 418.817C1460.05 418.817 1444.68 434.171 1444.68 453.111C1444.68 472.051 1460.05 487.405 1479 487.405Z" fill="#82C341"/>
<path d="M1187.94 812.264C1203.67 812.264 1216.43 799.518 1216.43 783.795C1216.43 768.072 1203.67 755.325 1187.94 755.325C1172.2 755.325 1159.45 768.072 1159.45 783.795C1159.45 799.518 1172.2 812.264 1187.94 812.264Z" fill="#82C341"/>
<path d="M448.181 510.539C467.135 510.539 482.501 495.186 482.501 476.246C482.501 457.306 467.135 441.952 448.181 441.952C429.227 441.952 413.862 457.306 413.862 476.246C413.862 495.186 429.227 510.539 448.181 510.539Z" fill="#82C341"/>
<path d="M304.772 568.713C320.326 568.713 332.936 556.113 332.936 540.57C332.936 525.027 320.326 512.426 304.772 512.426C289.217 512.426 276.607 525.027 276.607 540.57C276.607 556.113 289.217 568.713 304.772 568.713Z" fill="#82C341"/>
<path d="M413.955 360.411C425.531 360.411 434.915 351.034 434.915 339.467C434.915 327.899 425.531 318.522 413.955 318.522C402.379 318.522 392.995 327.899 392.995 339.467C392.995 351.034 402.379 360.411 413.955 360.411Z" fill="#82C341"/>
<path d="M1000.07 868.504C1011.64 868.504 1021.03 859.127 1021.03 847.56C1021.03 835.992 1011.64 826.615 1000.07 826.615C988.491 826.615 979.107 835.992 979.107 847.56C979.107 859.127 988.491 868.504 1000.07 868.504Z" fill="#82C341"/>
<path d="M829.379 883.345C835.289 883.345 840.08 878.557 840.08 872.651C840.08 866.745 835.289 861.958 829.379 861.958C823.468 861.958 818.677 866.745 818.677 872.651C818.677 878.557 823.468 883.345 829.379 883.345Z" fill="#82C341"/>
<path d="M880.042 788.943C888.914 788.943 896.106 781.757 896.106 772.891C896.106 764.026 888.914 756.839 880.042 756.839C871.17 756.839 863.978 764.026 863.978 772.891C863.978 781.757 871.17 788.943 880.042 788.943Z" fill="#82C341"/>
<path d="M1540.39 286.768C1549.26 286.768 1556.45 279.581 1556.45 270.716C1556.45 261.851 1549.26 254.664 1540.39 254.664C1531.52 254.664 1524.32 261.851 1524.32 270.716C1524.32 279.581 1531.52 286.768 1540.39 286.768Z" fill="#82C341"/>
<path d="M1275.9 893.782C1287.48 893.782 1296.86 884.405 1296.86 872.837C1296.86 861.27 1287.48 851.893 1275.9 851.893C1264.33 851.893 1254.94 861.27 1254.94 872.837C1254.94 884.405 1264.33 893.782 1275.9 893.782Z" fill="#82C341"/>
<path d="M1127.65 971.735C1131.44 971.735 1134.52 968.658 1134.52 964.862C1134.52 961.066 1131.44 957.989 1127.65 957.989C1123.85 957.989 1120.77 961.066 1120.77 964.862C1120.77 968.658 1123.85 971.735 1127.65 971.735Z" fill="#F37021"/>
<path d="M1223.84 719.96C1232.02 719.96 1238.65 713.336 1238.65 705.166C1238.65 696.996 1232.02 690.372 1223.84 690.372C1215.67 690.372 1209.04 696.996 1209.04 705.166C1209.04 713.336 1215.67 719.96 1223.84 719.96Z" fill="#F37021"/>
<path d="M1297.59 787.522C1307.97 787.522 1316.38 779.115 1316.38 768.744C1316.38 758.374 1307.97 749.967 1297.59 749.967C1287.21 749.967 1278.8 758.374 1278.8 768.744C1278.8 779.115 1287.21 787.522 1297.59 787.522Z" fill="#F37021"/>
<path d="M1145.6 873.513C1155.23 873.513 1163.04 865.711 1163.04 856.086C1163.04 846.462 1155.23 838.66 1145.6 838.66C1135.97 838.66 1128.16 846.462 1128.16 856.086C1128.16 865.711 1135.97 873.513 1145.6 873.513Z" fill="#F37021"/>
<path d="M1233.31 945.316C1242.94 945.316 1250.75 937.514 1250.75 927.889C1250.75 918.265 1242.94 910.463 1233.31 910.463C1223.68 910.463 1215.87 918.265 1215.87 927.889C1215.87 937.514 1223.68 945.316 1233.31 945.316Z" fill="#F37021"/>
<path d="M1331.86 861.911C1341.2 861.911 1348.76 854.349 1348.76 845.02C1348.76 835.692 1341.2 828.13 1331.86 828.13C1322.52 828.13 1314.96 835.692 1314.96 845.02C1314.96 854.349 1322.52 861.911 1331.86 861.911Z" fill="#F37021"/>
<path d="M1182.6 977C1188.73 977 1193.7 972.035 1193.7 965.911C1193.7 959.786 1188.73 954.821 1182.6 954.821C1176.47 954.821 1171.5 959.786 1171.5 965.911C1171.5 972.035 1176.47 977 1182.6 977Z" fill="#F37021"/>
<path d="M1155.11 923.16C1158.91 923.16 1161.99 920.083 1161.99 916.287C1161.99 912.491 1158.91 909.414 1155.11 909.414C1151.31 909.414 1148.23 912.491 1148.23 916.287C1148.23 920.083 1151.31 923.16 1155.11 923.16Z" fill="#F37021"/>
<path d="M1164.62 696.126C1169 696.126 1172.55 692.58 1172.55 688.205C1172.55 683.831 1169 680.284 1164.62 680.284C1160.24 680.284 1156.7 683.831 1156.7 688.205C1156.7 692.58 1160.24 696.126 1164.62 696.126Z" fill="#F37021"/>
<path d="M1175.72 652.84C1182.15 652.84 1187.35 647.635 1187.35 641.215C1187.35 634.794 1182.15 629.589 1175.72 629.589C1169.3 629.589 1164.09 634.794 1164.09 641.215C1164.09 647.635 1169.3 652.84 1175.72 652.84Z" fill="#F37021"/>
<path d="M1141.91 654.937C1146 654.937 1149.3 651.63 1149.3 647.551C1149.3 643.473 1146 640.166 1141.91 640.166C1137.83 640.166 1134.52 643.473 1134.52 647.551C1134.52 651.63 1137.83 654.937 1141.91 654.937Z" fill="#F37021"/>
<path d="M654.564 122.614C663.951 122.614 671.561 115.01 671.561 105.63C671.561 96.2505 663.951 88.6466 654.564 88.6466C645.177 88.6466 637.568 96.2505 637.568 105.63C637.568 115.01 645.177 122.614 654.564 122.614Z" fill="#F37021"/>
<path d="M735.886 213.451C745.273 213.451 752.883 205.847 752.883 196.467C752.883 187.087 745.273 179.483 735.886 179.483C726.499 179.483 718.89 187.087 718.89 196.467C718.89 205.847 726.499 213.451 735.886 213.451Z" fill="#F37021"/>
<path d="M779.741 180.229C784.544 180.229 788.438 176.338 788.438 171.539C788.438 166.739 784.544 162.849 779.741 162.849C774.938 162.849 771.045 166.739 771.045 171.539C771.045 176.338 774.938 180.229 779.741 180.229Z" fill="#F37021"/>
<path d="M865.097 230.062C869.9 230.062 873.793 226.171 873.793 221.372C873.793 216.573 869.9 212.682 865.097 212.682C860.294 212.682 856.401 216.573 856.401 221.372C856.401 226.171 860.294 230.062 865.097 230.062Z" fill="#F37021"/>
<path d="M891.886 174.87C896.689 174.87 900.582 170.98 900.582 166.18C900.582 161.381 896.689 157.49 891.886 157.49C887.083 157.49 883.189 161.381 883.189 166.18C883.189 170.98 887.083 174.87 891.886 174.87Z" fill="#F37021"/>
<path d="M875.985 121.892C878.805 121.892 881.091 119.608 881.091 116.79C881.091 113.972 878.805 111.688 875.985 111.688C873.165 111.688 870.879 113.972 870.879 116.79C870.879 119.608 873.165 121.892 875.985 121.892Z" fill="#F37021"/>
<path d="M923.641 208.721C926.46 208.721 928.746 206.437 928.746 203.619C928.746 200.802 926.46 198.517 923.641 198.517C920.821 198.517 918.535 200.802 918.535 203.619C918.535 206.437 920.821 208.721 923.641 208.721Z" fill="#F37021"/>
<path d="M728.169 403.185C732.972 403.185 736.865 399.294 736.865 394.495C736.865 389.696 732.972 385.805 728.169 385.805C723.366 385.805 719.472 389.696 719.472 394.495C719.472 399.294 723.366 403.185 728.169 403.185Z" fill="#F37021"/>
<path d="M882.327 325.535C891.714 325.535 899.323 317.931 899.323 308.551C899.323 299.171 891.714 291.567 882.327 291.567C872.94 291.567 865.33 299.171 865.33 308.551C865.33 317.931 872.94 325.535 882.327 325.535Z" fill="#F37021"/>
<path d="M757.149 329.705C764.283 329.705 770.066 323.926 770.066 316.798C770.066 309.67 764.283 303.891 757.149 303.891C750.016 303.891 744.233 309.67 744.233 316.798C744.233 323.926 750.016 329.705 757.149 329.705Z" fill="#F37021"/>
<path d="M1372.26 944.244C1376.35 944.244 1379.66 940.937 1379.66 936.859C1379.66 932.78 1376.35 929.473 1372.26 929.473C1368.18 929.473 1364.87 932.78 1364.87 936.859C1364.87 940.937 1368.18 944.244 1372.26 944.244Z" fill="#F37021"/>
</g>
<defs>
<clipPath id="clip0_2_191">
<rect width="1920" height="977" fill="white"/>
</clipPath>
</defs>
</svg>
