<svg width="26" height="26" viewBox="0 0 26 26" fill="none" xmlns="http://www.w3.org/2000/svg">
<g clip-path="url(#clip0_1_131)">
<path d="M13 26C20.1797 26 26 20.1797 26 13C26 5.8203 20.1797 0 13 0C5.8203 0 0 5.8203 0 13C0 20.1797 5.8203 26 13 26Z" fill="#F0F0F0"/>
<path d="M0 13C0 17.9275 2.74168 22.2145 6.7826 24.4193V1.58066C2.74168 3.78548 0 8.07243 0 13Z" fill="#D80027"/>
<path d="M25.1915 17.5217C25.714 16.1134 26 14.5902 26 13C26 11.4098 25.714 9.88654 25.1915 8.47827H0.808641C0.286051 9.88654 0 11.4098 0 13C0 14.5902 0.286051 16.1134 0.808641 17.5217L13 18.6521L25.1915 17.5217Z" fill="#D80027"/>
<path d="M13 26C18.5896 26 23.3546 22.4721 25.1915 17.5217H0.808655C2.64541 22.4721 7.41052 26 13 26Z" fill="#6DA544"/>
<path d="M0 13C0 19.0064 4.07372 24.0604 9.60868 25.5522V0.447845C4.07372 1.9396 0 6.99365 0 13Z" fill="#D80027"/>
<path d="M7.9532 5.72072L6.7542 4.52173L5.95491 5.32113L5.15561 4.52173L3.95661 5.72072L4.75596 6.52007L3.95651 7.31947L5.15551 8.51847L5.95486 7.71907L6.7542 8.51847L7.9532 7.31947L7.15385 6.52007L7.9532 5.72072Z" fill="#F0F0F0"/>
</g>
<defs>
<clipPath id="clip0_1_131">
<rect width="26" height="26" fill="white"/>
</clipPath>
</defs>
</svg>
