<svg width="26" height="26" viewBox="0 0 26 26" fill="none" xmlns="http://www.w3.org/2000/svg">
<g clip-path="url(#clip0_1_128)">
<path d="M13 26C20.1797 26 26 20.1797 26 13C26 5.8203 20.1797 0 13 0C5.8203 0 0 5.8203 0 13C0 20.1797 5.8203 26 13 26Z" fill="#F0F0F0"/>
<path d="M26 13C26 5.82034 20.1797 0 13 0C10.4569 0 8.08469 0.730996 6.08097 1.99321L8.93046 3.20389L5.08698 4.83691L8.93046 6.46989L5.08698 8.10281L8.93046 9.73568L5.08698 11.3683L8.93046 13.0009L5.08698 14.6338L8.93046 16.2667L5.08698 17.8993L8.93046 19.5321L5.08698 21.1651L8.93046 22.7977L6.08224 24.0077C8.08571 25.2694 10.4574 26 13 26C20.1797 26 26 20.1797 26 13Z" fill="#751A46"/>
</g>
<defs>
<clipPath id="clip0_1_128">
<rect width="26" height="26" fill="white"/>
</clipPath>
</defs>
</svg>
