<svg width="26" height="26" viewBox="0 0 26 26" fill="none" xmlns="http://www.w3.org/2000/svg">
<path d="M13 25.1875C19.731 25.1875 25.1875 19.731 25.1875 13C25.1875 6.26903 19.731 0.8125 13 0.8125C6.26903 0.8125 0.8125 6.26903 0.8125 13C0.8125 19.731 6.26903 25.1875 13 25.1875Z" fill="#699635"/>
<path d="M12.8781 10.8469C12.8375 10.4813 13.0406 10.1156 13.4062 10.1969C13.6906 10.2375 14.0156 10.5219 13.8531 10.8063C13.6094 11.2531 12.9594 11.2531 12.5531 11.4969C12.5937 11.7406 13.7719 11.4563 13.975 11.4563C14.1781 11.4563 14.3812 11.5375 14.2594 11.7813C14.1375 12.025 13.7312 12.025 13.4875 12.0656C13.2437 12.1063 12.8375 12.1063 12.7156 12.3094C12.4719 12.6344 12.9594 12.675 13.1219 12.7563C13.5281 12.9594 12.8781 13.1625 12.7156 13.1219C12.1062 13 11.9844 12.675 11.6187 12.2688C11.2531 12.7563 10.1156 13.8531 9.87186 12.7156C9.46561 12.8781 9.05936 13.0813 8.61249 13.1219C8.81561 12.8375 9.22186 12.7156 9.54686 12.5531C9.95311 12.35 9.95311 11.9844 10.1969 11.6594C10.2781 11.7813 10.1969 11.9438 10.2375 12.1063C10.5625 11.9438 10.9687 11.6188 10.8062 11.2125C10.8062 11.1719 10.3187 10.1969 10.725 10.3594C11.0906 10.5219 10.9687 10.8875 11.05 11.1719C11.1719 11.7 10.9281 11.9844 10.5219 12.3094C10.3594 12.4313 9.91249 12.9188 10.4406 12.9188C10.8062 12.9188 11.1312 12.5125 11.3344 12.2688C11.5781 11.9438 11.4969 11.6188 11.3344 11.2531C11.2125 10.9688 10.9281 10.3594 11.2937 10.1562C11.5781 10.6031 11.7 11.1313 11.8219 11.6594C11.9031 12.1063 11.9844 12.5531 12.4719 12.675C12.4312 12.35 12.6344 12.1063 12.9187 11.9844C12.7156 11.8219 11.5781 12.025 12.025 11.4156C12.0656 11.1313 12.8781 11.0094 12.8781 10.8469Z" fill="white"/>
<path d="M6.6625 12.35C6.86563 12.9188 7.55625 12.7156 7.9625 12.5531C8.6125 12.2281 8.6125 11.7406 8.6125 11.0906C8.36875 11.2125 8.40938 11.6594 8.32813 11.8625C8.16563 12.1875 7.6375 12.4719 7.27188 12.4313C6.74375 12.35 6.5 11.4563 6.90625 11.1313C6.9875 11.4156 6.78438 12.025 7.27188 12.0656C7.6375 12.1063 8.36875 11.6594 8.24688 11.2531C7.75938 11.4156 7.475 11.2531 7.6375 10.725C7.75938 10.2375 8.24688 10.6031 8.45 10.8469C9.22188 10.4 7.84063 8.69375 8.65313 8.24688C8.81563 8.53125 9.05938 8.89688 8.85625 9.18125C8.6125 9.50625 8.85625 10.1969 8.89688 10.5625C9.30313 10.1969 8.97813 10.8469 9.30313 10.8875C9.50625 10.9281 9.5875 10.4 9.70938 10.4C9.75 10.5219 9.75 10.8875 9.95313 10.8469C10.1969 10.7656 9.9125 10.4406 10.1563 10.3594C10.2375 10.5625 10.1969 11.1719 9.9125 11.1313C9.66875 11.0906 9.70938 10.9281 9.425 11.0906C9.18125 11.2125 9.1 11.0906 8.9375 10.9688C8.89688 11.4563 9.05938 11.9844 8.775 12.4313C8.53125 12.7969 8.04375 13 7.6375 13.0813C6.58125 13.2844 6.29688 12.2281 6.6625 11.375C6.74375 11.6188 6.58125 12.0656 6.6625 12.35ZM16.575 12.5531C16.7781 13.0813 17.1844 11.9844 17.3063 11.8219C17.6313 11.3344 18.1188 12.5938 18.3219 11.7813C18.4438 11.2531 18.2813 10.725 18.2406 10.1969C18.2 9.83125 18.0781 9.50625 17.8344 9.22188C17.5906 8.89688 17.3469 8.6125 17.4688 8.20625C17.875 8.36875 17.875 8.69375 18.0781 9.01875C18.1188 8.775 17.9563 8.45 18.1188 8.24688C18.3219 7.9625 18.4844 8.73438 18.4844 8.81563C18.525 9.01875 18.3219 9.1 18.4438 9.425C18.525 9.66875 18.6875 9.9125 18.85 10.1156C18.8094 9.87188 18.4438 8.20625 18.85 8.20625C18.9719 8.20625 19.0938 8.69375 19.0938 8.775C19.175 9.01875 19.0125 9.22188 19.0125 9.50625C18.9719 9.99375 19.0531 10.5625 19.3781 10.9281C19.5406 11.1313 20.15 11.8625 19.825 12.1063C19.5813 11.8219 19.4188 11.4969 19.2156 11.2125C19.2156 11.5375 19.2969 11.9031 19.1344 12.1469C18.9719 12.0656 19.0531 11.5375 19.0531 11.4156C19.0531 10.9688 18.7688 10.6031 18.525 10.2375C18.4438 10.8469 18.9313 11.9844 18.3625 12.4313C17.9969 12.7563 17.5094 12.025 17.3875 12.3094C17.2656 12.5125 16.9813 13.2438 16.6563 13.1625C16.25 13.0813 15.9656 11.9438 16.4125 11.8219C16.4531 12.025 16.4531 12.3094 16.575 12.5531Z" fill="white"/>
<path d="M7.88123 9.79063C8.16561 9.83125 7.88123 8.85625 7.88123 8.69375C7.92186 8.53125 8.04373 8.45 8.12498 8.6125C8.24686 8.85625 8.24686 9.14063 8.28748 9.38438C8.28748 9.5875 8.32811 9.83125 8.16561 9.99375C7.92186 10.2375 7.59686 10.1156 7.47498 9.79063C6.90623 10.2781 7.63749 11.1313 7.14998 11.6188C7.06873 11.1719 7.14999 10.6844 6.98749 10.2781C6.90623 10.075 6.54061 10.1563 6.49998 9.79063C6.49998 9.62813 6.62186 9.18125 6.45936 9.05938C6.37811 9.22188 6.29686 10.4813 5.89061 10.1156C5.56561 9.87188 5.64686 9.05938 5.76873 8.73438C6.01248 8.85625 5.72811 9.75 6.05311 9.79063C6.21561 9.83125 6.25623 9.14063 6.29686 9.01875C6.41873 8.81563 6.82498 8.24688 6.74373 8.81563C6.70311 9.05938 6.49998 9.83125 6.98749 9.79063C6.94686 9.38438 6.90623 8.97813 6.82498 8.57188C6.78436 8.36875 6.90623 7.9625 7.06873 8.32813C7.19061 8.57188 7.10936 8.69375 7.06873 8.9375C7.02811 9.22188 7.14999 9.50625 7.19061 9.75C7.43436 9.54688 7.10936 8.775 7.31248 8.45C7.79998 8.73438 7.27186 9.70938 7.88123 9.79063ZM13.1219 9.87188C12.9187 10.1563 12.5531 9.9125 12.3906 9.70938C12.1875 9.95313 11.7812 10.3594 11.4562 10.0344C11.2125 9.79063 11.4969 9.34375 11.2937 9.14063C11.1719 9.34375 10.9687 10.3188 10.6031 9.87188C10.4 9.62813 10.1156 8.775 10.5625 8.57188C10.5219 8.89688 10.4406 9.2625 10.6437 9.54688C10.8469 9.83125 11.05 9.1 11.1312 8.9375C11.2531 8.65313 11.6594 8.16563 11.5781 8.775C11.5375 9.01875 11.4562 9.5875 11.7 9.75C11.8625 9.87188 12.0656 9.66875 12.1469 9.54688C12.3094 9.34375 12.2281 9.01875 12.1875 8.775C12.1469 8.57188 12.0656 8.32813 12.1875 8.125C12.35 7.88125 12.4719 8.45 12.4719 8.57188C12.4719 8.69375 12.6344 9.95313 12.9187 9.54688C13.2031 9.18125 12.4312 8.36875 12.9594 8.16563C13.1625 8.08438 13.5281 8.89688 13.1219 8.65313C13.2437 9.01875 13.4062 9.54688 13.1219 9.87188ZM14.6656 10.3594C14.7062 10.8875 15.1531 12.35 14.5437 12.675C14.4625 12.5125 14.5437 12.2688 14.5844 12.0656C14.625 11.7 14.5437 11.3344 14.5031 11.0094C14.4219 10.2375 14.3406 9.66875 13.8125 9.05938C13.6906 8.89688 13.4875 8.775 13.4469 8.53125C13.4469 8.45 13.4062 8.08438 13.5687 8.16563C13.6906 8.20625 14.3812 8.81563 14.0156 8.81563C14.0562 8.89688 14.2187 9.22188 14.3 9.22188C14.3 9.01875 14.0562 8.40938 14.3 8.2875C14.5031 8.16563 14.7469 8.9375 14.6656 9.1C14.5844 9.30313 14.5844 9.425 14.6656 9.70938C14.7469 10.0344 14.95 10.3188 15.1125 10.6031C15.3562 11.0094 15.8437 11.5781 15.7219 12.1063C15.4781 11.9844 15.3156 11.4156 15.1937 11.1719C15.1125 10.9688 15.0312 10.7656 14.9094 10.6031C14.8687 10.5625 14.625 10.2375 14.6656 10.4406V10.3594ZM20.3125 11.1313C20.3531 11.9844 20.0687 13.0813 19.0125 13.0813C19.0125 12.8375 19.5406 12.5938 19.7031 12.4719C20.1094 12.1469 20.0687 11.5375 20.0281 11.0906C19.9875 10.4813 19.9469 9.87188 19.825 9.2625C19.7844 8.89688 19.5812 8.36875 19.9062 8.125C20.1094 8.2875 20.3937 8.73438 20.2719 8.89688C20.0687 9.14063 20.2719 10.9688 20.3125 11.1313Z" fill="white"/>
<path d="M15.1125 12.9594C16.1688 12.35 15.8438 11.05 15.7625 10.0344C15.7219 9.75001 15.7219 9.46563 15.6813 9.18126C15.6813 8.97813 15.5188 8.69376 15.6 8.49063C15.8031 7.96251 15.9656 8.45001 16.0063 8.77501C16.0469 8.97813 15.8844 9.01876 15.925 9.18126C15.9656 9.50626 15.9656 9.83126 16.0063 10.1563C16.0469 10.6844 16.1281 11.2125 16.0875 11.7C16.0063 12.4719 15.6 13.325 14.6656 13.1625C14.7063 13.0813 14.9906 13.0406 15.1125 12.9594ZM16.8188 10.9281C16.8594 11.3344 17.0219 12.0656 16.8188 12.4313C16.6563 12.675 16.6563 12.2688 16.6156 12.2281C16.575 11.9031 16.575 11.5781 16.575 11.2125C16.4938 10.3188 16.2094 9.42501 16.2094 8.57188C16.2094 7.47501 17.1438 9.18126 16.6156 9.10001C16.6563 9.70938 16.7375 10.3188 16.8188 10.9281ZM10.1969 8.85626C10.2781 9.05938 9.26251 9.58751 9.14064 9.58751C9.10001 9.38438 9.58751 9.10001 9.70939 9.01876C9.83126 8.89688 9.91251 8.89688 9.87189 8.73438C9.79064 8.57188 9.83126 8.28751 10.0344 8.20626C10.4406 8.08438 10.1563 8.69376 10.1969 8.85626ZM6.01251 12.4719C6.01251 12.7969 6.13439 12.6344 6.29689 12.5531C6.37814 12.7156 6.17501 13.1625 5.97189 12.9594C5.68751 12.675 5.93126 12.025 6.05314 11.7406C6.13439 11.9438 5.97189 12.2688 6.01251 12.4719ZM17.4688 9.95313C17.5094 9.79063 17.3875 9.62813 17.5094 9.46563C17.6719 9.26251 17.8344 9.50626 17.7531 9.58751C17.6719 9.66876 17.55 9.50626 17.55 9.75001C17.55 9.87188 17.6313 10.1156 17.5094 10.2375C17.4281 10.1969 17.0625 9.66876 17.1031 9.58751C17.2656 9.42501 17.4281 9.91251 17.4688 9.95313ZM6.86564 10.6438C6.78439 10.8063 5.85001 11.3344 5.80939 11.2125C5.80939 11.0906 6.98751 10.4 6.86564 10.6438ZM13.7719 12.7156C13.65 13.0813 14.1781 12.7563 14.3 12.7156C14.1375 13 13.5688 13.2438 13.65 12.7156C13.6094 12.7156 13.5281 12.7563 13.4875 12.7563C13.4063 12.675 13.8938 12.35 13.7719 12.7156ZM18.2 12.5938C18.3219 12.5938 18.525 12.9594 18.4031 13.0406C18.3219 13.1219 17.9563 13.1625 18.1594 13C18.4031 12.7563 18.2 12.5938 18.2 12.5938ZM12.4719 10.5219C12.5125 10.4406 12.5125 10.3188 12.5531 10.2375C12.9594 10.5625 11.9031 11.0906 12.1063 10.3188C12.1875 10.4 12.1875 10.5219 12.2688 10.5625C12.2688 10.4813 12.3094 10.3594 12.3094 10.2781C12.3906 10.3594 12.3906 10.4813 12.4719 10.5219ZM17.225 11.05C17.1031 10.8875 17.8344 10.4406 17.9563 10.3594C18.0375 10.4813 17.4688 10.9281 17.225 11.05ZM19.5 9.42501C19.4188 9.18126 19.175 8.69376 19.4188 8.49063C19.5813 8.61251 19.6625 9.22188 19.5 9.42501ZM15.0719 8.61251C15.0313 8.53126 14.9094 8.45001 14.9094 8.32813C14.95 8.16563 15.0313 8.20626 15.1125 8.28751C15.2344 8.45001 15.3156 8.89688 15.1125 9.01876C15.1125 8.89688 15.1531 8.73438 15.0719 8.61251ZM10.1156 9.70938C10.1156 9.95313 9.70939 10.1969 9.66876 9.87188C9.62814 9.75001 9.83126 9.30313 9.91251 9.42501C9.75001 9.79063 9.75001 9.91251 10.1156 9.70938Z" fill="white"/>
<path d="M15.1937 9.2625C15.3562 9.66875 15.275 9.30313 15.4375 9.22188C15.7219 9.75 14.8281 9.62813 15.0312 9.30313C15.0719 9.34375 15.1125 9.425 15.1125 9.46563C15.1531 9.425 15.1531 9.34375 15.1937 9.2625ZM17.7937 11.1313C17.5906 10.9688 17.8344 10.7656 17.9562 10.9688C18.0375 11.0906 18.0375 11.4156 17.875 11.4969C17.875 11.375 17.9156 11.2125 17.7937 11.1313ZM9.46561 12.025C9.46561 11.9438 9.42499 11.3344 9.54686 11.4156C9.70936 11.4969 9.66874 11.9438 9.46561 12.025ZM7.75936 8.20625C7.79999 8.32813 7.84061 8.49063 7.92186 8.2875C8.24686 8.65313 7.10936 8.53125 7.51561 8.16563C7.51561 8.20625 7.59686 8.45 7.75936 8.20625ZM11.9031 9.1C11.9031 8.9375 11.6594 8.24688 11.8625 8.24688C12.1062 8.2875 12.0656 8.89688 11.9031 9.1ZM6.21561 8.73438C6.09374 8.69375 6.29686 8.49063 6.21561 8.32813C6.13436 8.36875 6.05311 8.24688 6.13436 8.16563C6.45936 7.92188 6.33749 8.73438 6.21561 8.73438ZM16.7375 16.9813L16.575 16.4938L16.4125 16.9813H7.51561C7.51561 16.9813 7.59686 17.7125 8.49061 17.7125H16.3719V18.2813H18.525V16.9813H16.7375ZM18.1187 17.9563H16.6562V17.55H18.1187V17.9563Z" fill="white"/>
</svg>
