<svg width="26" height="26" viewBox="0 0 26 26" fill="none" xmlns="http://www.w3.org/2000/svg">
<g clip-path="url(#clip0_1_147)">
<path d="M13 26C20.1797 26 26 20.1797 26 13C26 5.8203 20.1797 0 13 0C5.8203 0 0 5.8203 0 13C0 20.1797 5.8203 26 13 26Z" fill="#F0F0F0"/>
<path d="M7.34784 17.5217L8.47828 25.1915C9.88655 25.7141 11.4098 26 13 26C18.5895 26 23.3546 22.4721 25.1914 17.5217H7.34784Z" fill="black"/>
<path d="M7.34784 8.47828L8.47828 0.808488C9.88655 0.285898 11.4098 0 13 0C18.5895 0 23.3546 3.52787 25.1914 8.47828H7.34784Z" fill="#6DA544"/>
<path d="M0 13C0 18.5895 3.52793 23.3546 8.47828 25.1914V0.808594C3.52793 2.6454 0 7.41046 0 13Z" fill="#A2001D"/>
</g>
<defs>
<clipPath id="clip0_1_147">
<rect width="26" height="26" fill="white"/>
</clipPath>
</defs>
</svg>
